<svg width="138" height="70" viewBox="0 0 138 70" fill="none" xmlns="http://www.w3.org/2000/svg">
<path d="M6.18422 48.0444C8.68906 49.7969 9.08638 51.7055 9.15548 52.2433L10.2611 52.868C9.72554 51.9831 9.22457 51.0808 8.77543 50.1612C8.00574 48.5883 7.34205 46.9652 6.78884 45.303C6.71974 45.1121 6.65064 44.9386 6.59882 44.7478C6.17683 43.3852 5.53488 42.1015 4.6986 40.9479L4.52585 40.705C-2.48768 36.8531 0.742688 28.9932 0.742688 28.9932C0.63904 30.7283 2.29741 32.047 4.00761 35.2222C5.47596 37.9115 4.99227 39.8028 4.80225 40.306C5.16502 40.8612 5.49324 41.347 5.78691 41.7461C5.68326 41.2429 5.56233 40.7397 5.47596 40.2365C5.14588 38.519 4.94379 36.7791 4.87135 35.0313L4.8368 34.3893C4.8368 34.1638 4.81952 33.9382 4.81952 33.73V32.4287C4.8368 31.9775 4.87135 31.5438 4.88862 31.11C4.90589 30.6762 4.90589 30.6762 4.92317 30.468L4.97499 29.8087C5.01241 29.3796 4.98915 28.9473 4.90589 28.5247L4.40493 26.0436C-0.708388 19.8667 5.16502 13.7418 5.16502 13.7418C4.4222 15.3207 5.49324 17.1599 5.9251 20.7342C6.30515 23.7879 5.16502 25.3669 4.80225 25.7659C4.95772 26.4947 5.09592 27.1193 5.23411 27.6225L5.28594 27.2234C5.33776 26.7896 5.44141 26.3732 5.51051 25.9395L5.64871 25.2975C5.67827 25.0859 5.72448 24.8771 5.78691 24.6728C5.9942 23.8227 6.18422 22.9725 6.44334 22.157L6.63337 21.5323L6.71974 21.22L6.84066 20.9077L7.27253 19.6758C7.54893 18.9644 7.8426 18.2704 8.15354 17.559C8.71536 16.3113 9.0433 14.9702 9.12093 13.603C9.1382 13.2907 9.15548 12.9784 9.19002 12.6661C6.44335 5.13579 14.0097 1.33596 14.0097 1.33596C12.8004 2.58522 13.1805 4.68467 12.4031 8.18954C11.7294 11.1912 10.1229 12.2843 9.67372 12.5446C9.51824 13.5683 9.43187 14.4358 9.39732 15.0258L9.43187 14.9737L9.74282 14.4011L10.071 13.8286L10.7447 12.7181L11.453 11.6424L11.8158 11.1218L12.2131 10.6013C12.6162 10.0461 13.0308 9.50821 13.4569 8.98768C14.0615 8.20689 14.8907 7.09644 15.6162 6.2983C15.9586 5.91998 16.2438 5.49323 16.4627 5.03169C19.624 -1.63103 27.3112 0.242856 27.3112 0.242856C25.5837 0.346961 24.4781 2.18615 21.576 4.2856C19.2612 5.95128 17.4473 5.84718 16.7736 5.72572L16.5145 5.81248L15.6335 6.74942C14.4733 8.0108 13.3998 9.3499 12.4204 10.7575L12.0576 11.278L11.7121 11.8159L11.0211 12.909L10.7275 13.4121C11.4553 12.7899 12.2227 12.2161 13.025 11.6944C17.1709 4.84083 24.8582 8.4151 24.8582 8.4151C23.1307 8.22424 21.7315 9.83787 18.5184 11.4168C15.7717 12.7702 13.906 12.1976 13.4223 11.9894C12.3167 12.6314 11.4012 13.2733 10.8657 13.6551C10.5347 13.897 10.2629 14.2115 10.071 14.5747L9.77736 15.1472C8.99967 16.6711 8.33005 18.2481 7.7735 19.8667L7.37618 21.0812L7.27253 21.3935L7.18616 21.6885L7.01341 22.3131C6.77156 23.1286 6.61609 23.9788 6.42607 24.8116C6.37425 25.0199 6.3397 25.2281 6.30515 25.4363C6.79242 24.6686 7.33516 23.9379 7.92897 23.2501C9.89829 15.4769 18.2765 16.6394 18.2765 16.6394C16.5663 16.9691 15.7199 18.9297 13.0941 21.3762C10.8484 23.4756 8.91363 23.4756 8.37811 23.4236C7.7735 24.0829 7.28981 24.6728 6.92704 25.124C6.40738 25.7421 6.08795 26.5048 6.01148 27.3102L5.87328 28.5768L5.82146 28.9064V29.2188L5.78691 29.8607L5.73508 30.5027C5.73508 30.7109 5.73508 30.9191 5.71781 31.1274C5.70053 31.3356 5.70053 31.9775 5.70053 32.4113L5.73508 33.6953C5.73508 33.9035 5.75236 34.1117 5.76963 34.3199L5.80418 34.9619C5.87328 35.8815 5.97693 36.8011 6.11513 37.7033C6.27881 36.9685 6.48648 36.2442 6.73701 35.5345C5.80418 27.5531 14.0615 25.6445 14.0615 25.6445C12.5931 26.5641 12.4722 28.6982 10.9002 31.9255C9.53552 34.7016 7.72167 35.3957 7.20343 35.5345C7.01341 36.0376 6.84066 36.4888 6.70247 36.9052C6.34914 37.9014 6.27739 38.9764 6.49517 40.011H6.51244C6.85958 41.6665 7.32136 43.2957 7.89442 44.8866C8.4836 46.4777 9.17014 48.0306 9.95011 49.5366C10.1747 49.9704 10.4165 50.4041 10.6584 50.8206C10.5296 49.9582 10.4489 49.0893 10.4165 48.2179C6.63337 41.1214 13.6124 36.3153 13.6124 36.3153C12.5759 37.7033 13.2496 39.7334 12.9732 43.325C12.7313 46.3787 11.2803 47.6974 10.8657 48.0271V48.3567C10.8657 50.3087 11.4693 52.2124 12.5931 53.8049H12.6104C13.5848 55.1787 14.6526 56.4831 15.8062 57.7088C16.0999 58.0038 16.3763 58.3161 16.6873 58.6111L17.6028 59.4786C17.6201 59.4786 17.6028 59.4786 17.6201 59.4613C17.3437 58.9755 17.1018 58.4723 16.8773 58.0038C10.6584 52.9374 15.2362 45.7888 15.2362 45.7888C14.8216 47.4719 16.2208 49.0855 17.3437 52.5036C18.2938 55.4185 17.4819 57.1883 17.2228 57.6394C17.3955 58.0906 17.5683 58.4896 17.741 58.854C18.136 59.7392 18.741 60.5137 19.503 61.1096C20.8105 62.1654 22.1902 63.1279 23.6317 63.9898C24.4609 64.4757 25.3246 64.9441 26.1883 65.3779C25.8256 65.0135 25.4974 64.6318 25.1864 64.2501C19.2439 61.4913 21.4205 54.8807 21.4205 54.8807C21.4378 56.3208 22.8716 57.3098 24.4609 59.791C25.791 61.9078 25.4974 63.4867 25.3937 63.9031C25.5837 64.1634 25.7565 64.4063 25.9292 64.6145C26.4967 65.3332 27.2327 65.8995 28.0713 66.2628H28.0886C29.6289 66.9153 31.21 67.466 32.8218 67.9111H32.8391C33.0512 67.9727 33.2386 68.0996 33.375 68.274C33.5114 68.4483 33.5898 68.6613 33.5992 68.8828C33.6057 69.0527 33.5721 69.2217 33.501 69.376C33.4299 69.5303 33.3234 69.6655 33.1902 69.7705C33.057 69.8755 32.901 69.9473 32.7349 69.9799C32.5687 70.0126 32.3973 70.0053 32.2345 69.9585C30.5513 69.4626 28.9011 68.8599 27.2939 68.1541C25.6955 67.4223 24.1487 66.5817 22.6643 65.6382C21.766 65.083 20.9023 64.4583 20.0558 63.8163C18.9118 62.9486 17.5459 62.4251 16.1172 62.3068C8.65451 65.1871 4.7677 57.6394 4.7677 57.6394C6.01148 58.8367 8.10172 58.4202 11.6085 59.149C14.597 59.7736 15.7199 61.3699 15.979 61.8383C16.7045 61.9251 17.3437 61.9945 17.8619 62.0292L16.4627 60.7452L15.5471 59.8083C15.2362 59.496 14.9425 59.149 14.6488 58.8367C13.4808 57.5286 12.4016 56.1432 11.4185 54.6898L11.3494 54.6031C10.8742 53.8905 10.2262 53.3113 9.46642 52.92L9.08638 52.7292H9.10365C1.10546 52.4342 0.483567 43.9496 0.483567 43.9496C1.15728 45.5459 3.24752 45.9797 6.18422 48.0444Z" fill="#D8463F"/>
<path d="M78.125 36.6875H76.3898C78.2633 34.8555 79.4727 32.3578 79.6516 29.5812C81.45 29.2312 82.8125 27.6484 82.8125 25.75C82.8125 23.8641 81.468 22.2859 79.6875 21.9227V20.2812H85.1562C86.4484 20.2812 87.5 19.2297 87.5 17.9375C87.5 16.6453 86.4484 15.5938 85.1562 15.5938H80.9977L78.9695 10.5227C78.3031 8.85703 76.7133 7.78125 74.9195 7.78125C73.7555 7.78125 72.6602 8.23516 71.8367 9.05859C71.1594 9.73594 70.2211 10.125 69.2617 10.125H68.2375C67.2781 10.125 66.3398 9.73594 65.6625 9.05859C64.8391 8.23516 63.7445 7.78125 62.5805 7.78125C60.7867 7.78125 59.1977 8.85703 58.5305 10.5227L56.5023 15.5938H52.3438C51.0516 15.5938 50 16.6453 50 17.9375C50 19.2297 51.0516 20.2812 52.3438 20.2812H57.8125V21.9227C56.032 22.2859 54.6875 23.8641 54.6875 25.75C54.6875 27.6484 56.05 29.2312 57.8484 29.5812C58.0273 32.3578 59.2367 34.8555 61.1102 36.6875H59.375C55.4977 36.6875 52.3438 39.8422 52.3438 43.7188V55.4375C52.3438 55.8688 52.693 56.2188 53.125 56.2188H84.375C84.807 56.2188 85.1562 55.8688 85.1562 55.4375V43.7188C85.1562 39.8422 82.0023 36.6875 78.125 36.6875ZM81.25 25.75C81.25 26.7672 80.5945 27.6266 79.6875 27.95V23.5508C80.5945 23.8734 81.25 24.7328 81.25 25.75ZM59.9812 11.1031C60.4086 10.0344 61.4289 9.34375 62.5805 9.34375C63.3273 9.34375 64.0297 9.63516 64.5586 10.1633C65.5414 11.1461 66.8477 11.6875 68.2383 11.6875H69.2625C70.6523 11.6875 71.9594 11.1461 72.9422 10.1633C73.4703 9.63516 74.1727 9.34375 74.9195 9.34375C76.0711 9.34375 77.0906 10.0344 77.518 11.1031L79.3148 15.5938H58.1852L59.9812 11.1031ZM51.5625 17.9375C51.5625 17.507 51.9125 17.1562 52.3438 17.1562H57.0312H80.4688H85.1562C85.5875 17.1562 85.9375 17.507 85.9375 17.9375C85.9375 18.368 85.5875 18.7188 85.1562 18.7188H52.3438C51.9125 18.7188 51.5625 18.368 51.5625 17.9375ZM56.25 25.75C56.25 24.7328 56.9055 23.8734 57.8125 23.55V27.9492C56.9055 27.6266 56.25 26.7672 56.25 25.75ZM59.375 28.875V20.2812H78.125V28.875C78.125 34.0445 73.9195 38.25 68.75 38.25C63.5805 38.25 59.375 34.0445 59.375 28.875ZM73.4094 38.7562C73.1555 41.1039 71.1641 42.9375 68.75 42.9375C66.3359 42.9375 64.3445 41.1039 64.0906 38.7562C65.507 39.4266 67.082 39.8125 68.75 39.8125C70.418 39.8125 71.993 39.4266 73.4094 38.7562ZM83.5938 54.6562H79.6875V46.0625H78.125V54.6562H59.375V46.0625H57.8125V54.6562H53.9062V43.7188C53.9062 40.7031 56.3602 38.25 59.375 38.25H62.5C62.5 41.6961 65.3039 44.5 68.75 44.5C72.1961 44.5 75 41.6961 75 38.25H78.125C81.1398 38.25 83.5938 40.7031 83.5938 43.7188V54.6562Z" fill="#0289C4"/>
<path d="M67.9688 32H69.5312V33.5625H67.9688V32Z" fill="#0289C4"/>
<path d="M68.75 23.4062C70.0422 23.4062 71.0938 24.4578 71.0938 25.75C71.0938 27.0422 70.0422 28.0938 68.75 28.0938C68.318 28.0938 67.9688 28.4437 67.9688 28.875V31.2188H69.5312V29.5773C71.3117 29.2148 72.6562 27.6359 72.6562 25.75C72.6562 23.5961 70.9039 21.8438 68.75 21.8438C66.5961 21.8438 64.8438 23.5961 64.8438 25.75H66.4062C66.4062 24.4578 67.4578 23.4062 68.75 23.4062Z" fill="#0289C4"/>
<path d="M131.016 48.0444C128.511 49.7969 128.114 51.7055 128.044 52.2433L126.939 52.868C127.474 51.9831 127.975 51.0808 128.425 50.1612C129.194 48.5883 129.858 46.9652 130.411 45.303C130.48 45.1121 130.549 44.9386 130.601 44.7478C131.023 43.3852 131.665 42.1015 132.501 40.9479L132.674 40.705C139.688 36.8531 136.457 28.9932 136.457 28.9932C136.561 30.7283 134.903 32.047 133.192 35.2222C131.724 37.9115 132.208 39.8028 132.398 40.306C132.035 40.8612 131.707 41.347 131.413 41.7461C131.517 41.2429 131.638 40.7397 131.724 40.2365C132.054 38.519 132.256 36.7791 132.329 35.0313L132.363 34.3893C132.363 34.1638 132.38 33.9382 132.38 33.73V32.4287C132.363 31.9775 132.329 31.5438 132.311 31.11C132.294 30.6762 132.294 30.6762 132.277 30.468L132.225 29.8087C132.188 29.3796 132.211 28.9473 132.294 28.5247L132.795 26.0436C137.908 19.8667 132.035 13.7418 132.035 13.7418C132.778 15.3207 131.707 17.1599 131.275 20.7342C130.895 23.7879 132.035 25.3669 132.398 25.7659C132.242 26.4947 132.104 27.1193 131.966 27.6225L131.914 27.2234C131.862 26.7896 131.759 26.3732 131.689 25.9395L131.551 25.2975C131.522 25.0859 131.475 24.8771 131.413 24.6728C131.206 23.8227 131.016 22.9725 130.757 22.157L130.567 21.5323L130.48 21.22L130.359 20.9077L129.927 19.6758C129.651 18.9644 129.357 18.2704 129.046 17.559C128.485 16.3113 128.157 14.9702 128.079 13.603C128.062 13.2907 128.044 12.9784 128.01 12.6661C130.757 5.13579 123.19 1.33596 123.19 1.33596C124.4 2.58522 124.019 4.68467 124.797 8.18954C125.471 11.1912 127.077 12.2843 127.526 12.5446C127.682 13.5683 127.768 14.4358 127.803 15.0258L127.768 14.9737L127.457 14.4011L127.129 13.8286L126.455 12.7181L125.747 11.6424L125.384 11.1218L124.987 10.6013C124.584 10.0461 124.169 9.50821 123.743 8.98768C123.138 8.20689 122.309 7.09644 121.584 6.2983C121.241 5.91998 120.956 5.49323 120.737 5.03169C117.576 -1.63103 109.889 0.242856 109.889 0.242856C111.616 0.346961 112.722 2.18615 115.624 4.2856C117.939 5.95128 119.753 5.84718 120.426 5.72572L120.685 5.81248L121.566 6.74942C122.727 8.0108 123.8 9.3499 124.78 10.7575L125.142 11.278L125.488 11.8159L126.179 12.909L126.472 13.4121C125.745 12.7899 124.977 12.2161 124.175 11.6944C120.029 4.84083 112.342 8.4151 112.342 8.4151C114.069 8.22424 115.468 9.83787 118.682 11.4168C121.428 12.7702 123.294 12.1976 123.778 11.9894C124.883 12.6314 125.799 13.2733 126.334 13.6551C126.665 13.897 126.937 14.2115 127.129 14.5747L127.423 15.1472C128.2 16.6711 128.87 18.2481 129.426 19.8667L129.824 21.0812L129.927 21.3935L130.014 21.6885L130.187 22.3131C130.428 23.1286 130.584 23.9788 130.774 24.8116C130.826 25.0199 130.86 25.2281 130.895 25.4363C130.408 24.6686 129.865 23.9379 129.271 23.2501C127.302 15.4769 118.923 16.6394 118.923 16.6394C120.634 16.9691 121.48 18.9297 124.106 21.3762C126.352 23.4756 128.286 23.4756 128.822 23.4236C129.426 24.0829 129.91 24.6728 130.273 25.124C130.793 25.7421 131.112 26.5048 131.188 27.3102L131.327 28.5768L131.378 28.9064V29.2188L131.413 29.8607L131.465 30.5027C131.465 30.7109 131.465 30.9191 131.482 31.1274C131.499 31.3356 131.499 31.9775 131.499 32.4113L131.465 33.6953C131.465 33.9035 131.448 34.1117 131.43 34.3199L131.396 34.9619C131.327 35.8815 131.223 36.8011 131.085 37.7033C130.921 36.9685 130.713 36.2442 130.463 35.5345C131.396 27.5531 123.138 25.6445 123.138 25.6445C124.607 26.5641 124.728 28.6982 126.3 31.9255C127.664 34.7016 129.478 35.3957 129.997 35.5345C130.187 36.0376 130.359 36.4888 130.497 36.9052C130.851 37.9014 130.923 38.9764 130.705 40.011H130.688C130.34 41.6665 129.879 43.2957 129.306 44.8866C128.716 46.4777 128.03 48.0306 127.25 49.5366C127.025 49.9704 126.783 50.4041 126.542 50.8206C126.67 49.9582 126.751 49.0893 126.783 48.2179C130.567 41.1214 123.588 36.3153 123.588 36.3153C124.624 37.7033 123.95 39.7334 124.227 43.325C124.469 46.3787 125.92 47.6974 126.334 48.0271V48.3567C126.334 50.3087 125.731 52.2124 124.607 53.8049H124.59C123.615 55.1787 122.547 56.4831 121.394 57.7088C121.1 58.0038 120.824 58.3161 120.513 58.6111L119.597 59.4786C119.58 59.4786 119.597 59.4786 119.58 59.4613C119.856 58.9755 120.098 58.4723 120.323 58.0038C126.542 52.9374 121.964 45.7888 121.964 45.7888C122.378 47.4719 120.979 49.0855 119.856 52.5036C118.906 55.4185 119.718 57.1883 119.977 57.6394C119.804 58.0906 119.632 58.4896 119.459 58.854C119.064 59.7392 118.459 60.5137 117.697 61.1096C116.389 62.1654 115.01 63.1279 113.568 63.9898C112.739 64.4757 111.875 64.9441 111.012 65.3779C111.374 65.0135 111.703 64.6318 112.014 64.2501C117.956 61.4913 115.779 54.8807 115.779 54.8807C115.762 56.3208 114.328 57.3098 112.739 59.791C111.409 61.9078 111.703 63.4867 111.806 63.9031C111.616 64.1634 111.443 64.4063 111.271 64.6145C110.703 65.3332 109.967 65.8995 109.129 66.2628H109.111C107.571 66.9153 105.99 67.466 104.378 67.9111H104.361C104.149 67.9727 103.961 68.0996 103.825 68.274C103.689 68.4483 103.61 68.6613 103.601 68.8828C103.594 69.0527 103.628 69.2217 103.699 69.376C103.77 69.5303 103.877 69.6655 104.01 69.7705C104.143 69.8755 104.299 69.9473 104.465 69.9799C104.631 70.0126 104.803 70.0053 104.965 69.9585C106.649 69.4626 108.299 68.8599 109.906 68.1541C111.504 67.4223 113.051 66.5817 114.536 65.6382C115.434 65.083 116.298 64.4583 117.144 63.8163C118.288 62.9486 119.654 62.4251 121.083 62.3068C128.545 65.1871 132.432 57.6394 132.432 57.6394C131.188 58.8367 129.098 58.4202 125.591 59.149C122.603 59.7736 121.48 61.3699 121.221 61.8383C120.495 61.9251 119.856 61.9945 119.338 62.0292L120.737 60.7452L121.653 59.8083C121.964 59.496 122.257 59.149 122.551 58.8367C123.719 57.5286 124.798 56.1432 125.781 54.6898L125.851 54.6031C126.326 53.8905 126.974 53.3113 127.734 52.92L128.114 52.7292H128.096C136.094 52.4342 136.716 43.9496 136.716 43.9496C136.043 45.5459 133.952 45.9797 131.016 48.0444Z" fill="#D8463F"/>
</svg>
