<svg width="138" height="70" viewBox="0 0 138 70" fill="none" xmlns="http://www.w3.org/2000/svg">
<path d="M6.18422 48.0444C8.68906 49.7969 9.08638 51.7055 9.15548 52.2433L10.2611 52.868C9.72554 51.9831 9.22457 51.0808 8.77543 50.1612C8.00574 48.5883 7.34205 46.9652 6.78884 45.303C6.71974 45.1121 6.65064 44.9386 6.59882 44.7478C6.17683 43.3852 5.53488 42.1015 4.6986 40.9479L4.52585 40.705C-2.48768 36.8531 0.742688 28.9932 0.742688 28.9932C0.63904 30.7283 2.29741 32.047 4.00761 35.2222C5.47596 37.9115 4.99227 39.8028 4.80225 40.306C5.16502 40.8612 5.49324 41.347 5.78691 41.7461C5.68326 41.2429 5.56233 40.7397 5.47596 40.2365C5.14588 38.519 4.94379 36.7791 4.87135 35.0313L4.8368 34.3893C4.8368 34.1638 4.81952 33.9382 4.81952 33.73V32.4287C4.8368 31.9775 4.87135 31.5438 4.88862 31.11C4.90589 30.6762 4.90589 30.6762 4.92317 30.468L4.97499 29.8087C5.01241 29.3796 4.98915 28.9473 4.90589 28.5247L4.40493 26.0436C-0.708388 19.8667 5.16502 13.7418 5.16502 13.7418C4.4222 15.3207 5.49324 17.1599 5.9251 20.7342C6.30515 23.7879 5.16502 25.3669 4.80225 25.7659C4.95772 26.4947 5.09592 27.1193 5.23411 27.6225L5.28594 27.2234C5.33776 26.7896 5.44141 26.3732 5.51051 25.9395L5.64871 25.2975C5.67827 25.0859 5.72448 24.8771 5.78691 24.6728C5.9942 23.8227 6.18422 22.9725 6.44334 22.157L6.63337 21.5323L6.71974 21.22L6.84066 20.9077L7.27253 19.6758C7.54893 18.9644 7.8426 18.2704 8.15354 17.559C8.71536 16.3113 9.0433 14.9702 9.12093 13.603C9.1382 13.2907 9.15548 12.9784 9.19002 12.6661C6.44335 5.13579 14.0097 1.33596 14.0097 1.33596C12.8004 2.58522 13.1805 4.68467 12.4031 8.18954C11.7294 11.1912 10.1229 12.2843 9.67372 12.5446C9.51824 13.5683 9.43187 14.4358 9.39732 15.0258L9.43187 14.9737L9.74282 14.4011L10.071 13.8286L10.7447 12.7181L11.453 11.6424L11.8158 11.1218L12.2131 10.6013C12.6162 10.0461 13.0308 9.50821 13.4569 8.98768C14.0615 8.20689 14.8907 7.09644 15.6162 6.2983C15.9586 5.91998 16.2438 5.49323 16.4627 5.03169C19.624 -1.63103 27.3112 0.242856 27.3112 0.242856C25.5837 0.346961 24.4781 2.18615 21.576 4.2856C19.2612 5.95128 17.4473 5.84718 16.7736 5.72572L16.5145 5.81248L15.6335 6.74942C14.4733 8.0108 13.3998 9.3499 12.4204 10.7575L12.0576 11.278L11.7121 11.8159L11.0211 12.909L10.7275 13.4121C11.4553 12.7899 12.2227 12.2161 13.025 11.6944C17.1709 4.84083 24.8582 8.4151 24.8582 8.4151C23.1307 8.22424 21.7315 9.83787 18.5184 11.4168C15.7717 12.7702 13.906 12.1976 13.4223 11.9894C12.3167 12.6314 11.4012 13.2733 10.8657 13.6551C10.5347 13.897 10.2629 14.2115 10.071 14.5747L9.77736 15.1472C8.99967 16.6711 8.33005 18.2481 7.7735 19.8667L7.37618 21.0812L7.27253 21.3935L7.18616 21.6885L7.01341 22.3131C6.77156 23.1286 6.61609 23.9788 6.42607 24.8116C6.37425 25.0199 6.3397 25.2281 6.30515 25.4363C6.79242 24.6686 7.33516 23.9379 7.92897 23.2501C9.89829 15.4769 18.2765 16.6394 18.2765 16.6394C16.5663 16.9691 15.7199 18.9297 13.0941 21.3762C10.8484 23.4756 8.91363 23.4756 8.37811 23.4236C7.7735 24.0829 7.28981 24.6728 6.92704 25.124C6.40738 25.7421 6.08795 26.5048 6.01148 27.3102L5.87328 28.5768L5.82146 28.9064V29.2188L5.78691 29.8607L5.73508 30.5027C5.73508 30.7109 5.73508 30.9191 5.71781 31.1274C5.70053 31.3356 5.70053 31.9775 5.70053 32.4113L5.73508 33.6953C5.73508 33.9035 5.75236 34.1117 5.76963 34.3199L5.80418 34.9619C5.87328 35.8815 5.97693 36.8011 6.11513 37.7033C6.27881 36.9685 6.48648 36.2442 6.73701 35.5345C5.80418 27.5531 14.0615 25.6445 14.0615 25.6445C12.5931 26.5641 12.4722 28.6982 10.9002 31.9255C9.53552 34.7016 7.72167 35.3957 7.20343 35.5345C7.01341 36.0376 6.84066 36.4888 6.70247 36.9052C6.34914 37.9014 6.27739 38.9764 6.49517 40.011H6.51244C6.85958 41.6665 7.32136 43.2957 7.89442 44.8866C8.4836 46.4777 9.17014 48.0306 9.95011 49.5366C10.1747 49.9704 10.4165 50.4041 10.6584 50.8206C10.5296 49.9582 10.4489 49.0893 10.4165 48.2179C6.63337 41.1214 13.6124 36.3153 13.6124 36.3153C12.5759 37.7033 13.2496 39.7334 12.9732 43.325C12.7313 46.3787 11.2803 47.6974 10.8657 48.0271V48.3567C10.8657 50.3087 11.4693 52.2124 12.5931 53.8049H12.6104C13.5848 55.1787 14.6526 56.4831 15.8062 57.7088C16.0999 58.0038 16.3763 58.3161 16.6873 58.6111L17.6028 59.4786C17.6201 59.4786 17.6028 59.4786 17.6201 59.4613C17.3437 58.9755 17.1018 58.4723 16.8773 58.0038C10.6584 52.9374 15.2362 45.7888 15.2362 45.7888C14.8216 47.4719 16.2208 49.0855 17.3437 52.5036C18.2938 55.4185 17.4819 57.1883 17.2228 57.6394C17.3955 58.0906 17.5683 58.4896 17.741 58.854C18.136 59.7392 18.741 60.5137 19.503 61.1096C20.8105 62.1654 22.1902 63.1279 23.6317 63.9898C24.4609 64.4757 25.3246 64.9441 26.1883 65.3779C25.8256 65.0135 25.4974 64.6318 25.1864 64.2501C19.2439 61.4913 21.4205 54.8807 21.4205 54.8807C21.4378 56.3208 22.8716 57.3098 24.4609 59.791C25.791 61.9078 25.4974 63.4867 25.3937 63.9031C25.5837 64.1634 25.7565 64.4063 25.9292 64.6145C26.4967 65.3332 27.2327 65.8995 28.0713 66.2628H28.0886C29.6289 66.9153 31.21 67.466 32.8218 67.9111H32.8391C33.0512 67.9727 33.2386 68.0996 33.375 68.274C33.5114 68.4483 33.5898 68.6613 33.5992 68.8828C33.6057 69.0527 33.5721 69.2217 33.501 69.376C33.4299 69.5303 33.3234 69.6655 33.1902 69.7705C33.057 69.8755 32.901 69.9473 32.7349 69.9799C32.5687 70.0126 32.3973 70.0053 32.2345 69.9585C30.5513 69.4626 28.9011 68.8599 27.2939 68.1541C25.6955 67.4223 24.1487 66.5817 22.6643 65.6382C21.766 65.083 20.9023 64.4583 20.0558 63.8163C18.9118 62.9486 17.5459 62.4251 16.1172 62.3068C8.65451 65.1871 4.7677 57.6394 4.7677 57.6394C6.01148 58.8367 8.10172 58.4202 11.6085 59.149C14.597 59.7736 15.7199 61.3699 15.979 61.8383C16.7045 61.9251 17.3437 61.9945 17.8619 62.0292L16.4627 60.7452L15.5471 59.8083C15.2362 59.496 14.9425 59.149 14.6488 58.8367C13.4808 57.5286 12.4016 56.1432 11.4185 54.6898L11.3494 54.6031C10.8742 53.8905 10.2262 53.3113 9.46642 52.92L9.08638 52.7292H9.10365C1.10546 52.4342 0.483567 43.9496 0.483567 43.9496C1.15728 45.5459 3.24752 45.9797 6.18422 48.0444Z" fill="#D8463F"/>
<g clip-path="url(#clip0)">
<path d="M78.3808 47H70.8808V40.3334C70.8808 38.0322 69.0153 36.1667 66.7142 36.1667H61.7142V31.5917L73.0308 23.5084C73.2142 23.3786 73.3374 23.1802 73.3725 22.9584C73.4057 22.7372 73.3486 22.512 73.2142 22.3334L70.7142 19C70.4448 18.6419 69.9404 18.5609 69.5725 18.8167L61.0308 24.725C62.5413 21.8794 61.4588 18.348 58.6131 16.8377C55.7675 15.3273 52.2361 16.4098 50.7258 19.2554C49.5114 21.5435 49.9513 24.3583 51.8058 26.1667H50.8808C50.6457 26.1672 50.4217 26.2671 50.2642 26.4417L44.8808 32.425C43.4028 34.0764 43.476 36.5956 45.0475 38.1584L49.4558 42.5917C49.6291 42.7651 49.8699 42.8536 50.1142 42.8334C50.3616 42.8143 50.5876 42.6861 50.7308 42.4834L51.7142 41.0917V56.1667C51.7142 56.6269 52.0873 57 52.5475 57H57.5475C58.0077 57 58.3808 56.6269 58.3808 56.1667V42.8334H64.2142V47H61.7142C61.254 47 60.8808 47.3731 60.8808 47.8334V56.1667C60.8808 56.6269 61.254 57 61.7142 57H78.3808C78.841 57 79.2142 56.6269 79.2142 56.1667V47.8334C79.2142 47.3731 78.8411 47 78.3808 47ZM51.7142 22C51.7142 19.6989 53.5797 17.8334 55.8808 17.8334C58.182 17.8334 60.0475 19.6989 60.0475 22C60.0475 24.3012 58.182 26.1667 55.8808 26.1667C53.5797 26.1667 51.7142 24.3012 51.7142 22ZM57.8642 27.8334L56.7142 30.1334L55.5642 27.8334H57.8642ZM51.7142 36.7584L50.3808 35.3334L51.7142 34V36.7584ZM57.5475 41.1667C57.0873 41.1667 56.7142 41.5398 56.7142 42V55.3334H53.3808V32C53.3792 31.6636 53.1753 31.3612 52.8642 31.2334C52.5539 31.1028 52.1955 31.1719 51.9558 31.4084L48.6225 34.7417C48.3049 35.0658 48.3049 35.5843 48.6225 35.9084L51.3475 38.75L49.9392 40.7167L46.2058 37C45.2539 36.0579 45.2134 34.5329 46.1142 33.5417L51.2558 27.8334H53.6975L55.9725 32.375C56.1824 32.7846 56.6845 32.9466 57.0942 32.7367C57.2497 32.657 57.3763 32.5305 57.4558 32.375L59.8642 27.5667L69.8642 20.6417L71.3725 22.65L60.3975 30.4917C60.179 30.6472 60.0488 30.8985 60.0475 31.1667V37C60.0475 37.4602 60.4206 37.8334 60.8808 37.8334H66.7142C68.0949 37.8334 69.2142 38.9526 69.2142 40.3334V47H65.8808V42C65.8808 41.5398 65.5077 41.1667 65.0475 41.1667H57.5475ZM77.5475 55.3334H62.5475V48.6667H77.5475V55.3334Z" fill="#0289C4"/>
<path d="M92.5476 13.6667C89.326 13.6667 86.7143 11.055 86.7143 7.83333C86.7143 7.37312 86.3412 7 85.881 7C85.4208 7 85.0476 7.37312 85.0476 7.83333C85.0476 11.055 82.436 13.6667 79.2143 13.6667C78.7541 13.6667 78.381 14.0398 78.381 14.5C78.381 14.9602 78.7541 15.3333 79.2143 15.3333C82.436 15.3333 85.0476 17.945 85.0476 21.1667C85.0476 21.6269 85.4208 22 85.881 22C86.3412 22 86.7143 21.6269 86.7143 21.1667C86.7143 17.945 89.326 15.3333 92.5476 15.3333C93.0079 15.3333 93.381 14.9602 93.381 14.5C93.381 14.0398 93.008 13.6667 92.5476 13.6667ZM85.881 17.7333C85.1625 16.3479 84.0332 15.2185 82.6476 14.5C84.0331 13.7815 85.1624 12.6521 85.881 11.2667C86.5995 12.6521 87.7289 13.7815 89.1143 14.5C87.7289 15.2185 86.5995 16.3479 85.881 17.7333Z" fill="#0289C4"/>
<path d="M71.8255 27.9932L69.5542 29.6587L70.5397 31.0027L72.811 29.3372L71.8255 27.9932Z" fill="#0289C4"/>
<path d="M82.0572 20.4935L73.7264 26.6067L74.7124 27.9504L83.0432 21.8372L82.0572 20.4935Z" fill="#0289C4"/>
<path d="M78.7475 16.3046L73.7485 19.6375L74.673 21.0241L79.672 17.6913L78.7475 16.3046Z" fill="#0289C4"/>
</g>
<path d="M131.016 48.0444C128.511 49.7969 128.114 51.7055 128.044 52.2433L126.939 52.868C127.474 51.9831 127.975 51.0808 128.425 50.1612C129.194 48.5883 129.858 46.9652 130.411 45.303C130.48 45.1121 130.549 44.9386 130.601 44.7478C131.023 43.3852 131.665 42.1015 132.501 40.9479L132.674 40.705C139.688 36.8531 136.457 28.9932 136.457 28.9932C136.561 30.7283 134.903 32.047 133.192 35.2222C131.724 37.9115 132.208 39.8028 132.398 40.306C132.035 40.8612 131.707 41.347 131.413 41.7461C131.517 41.2429 131.638 40.7397 131.724 40.2365C132.054 38.519 132.256 36.7791 132.329 35.0313L132.363 34.3893C132.363 34.1638 132.38 33.9382 132.38 33.73V32.4287C132.363 31.9775 132.329 31.5438 132.311 31.11C132.294 30.6762 132.294 30.6762 132.277 30.468L132.225 29.8087C132.188 29.3796 132.211 28.9473 132.294 28.5247L132.795 26.0436C137.908 19.8667 132.035 13.7418 132.035 13.7418C132.778 15.3207 131.707 17.1599 131.275 20.7342C130.895 23.7879 132.035 25.3669 132.398 25.7659C132.242 26.4947 132.104 27.1193 131.966 27.6225L131.914 27.2234C131.862 26.7896 131.759 26.3732 131.689 25.9395L131.551 25.2975C131.522 25.0859 131.475 24.8771 131.413 24.6728C131.206 23.8227 131.016 22.9725 130.757 22.157L130.567 21.5323L130.48 21.22L130.359 20.9077L129.927 19.6758C129.651 18.9644 129.357 18.2704 129.046 17.559C128.485 16.3113 128.157 14.9702 128.079 13.603C128.062 13.2907 128.044 12.9784 128.01 12.6661C130.757 5.13579 123.19 1.33596 123.19 1.33596C124.4 2.58522 124.019 4.68467 124.797 8.18954C125.471 11.1912 127.077 12.2843 127.526 12.5446C127.682 13.5683 127.768 14.4358 127.803 15.0258L127.768 14.9737L127.457 14.4011L127.129 13.8286L126.455 12.7181L125.747 11.6424L125.384 11.1218L124.987 10.6013C124.584 10.0461 124.169 9.50821 123.743 8.98768C123.138 8.20689 122.309 7.09644 121.584 6.2983C121.241 5.91998 120.956 5.49323 120.737 5.03169C117.576 -1.63103 109.889 0.242856 109.889 0.242856C111.616 0.346961 112.722 2.18615 115.624 4.2856C117.939 5.95128 119.753 5.84718 120.426 5.72572L120.685 5.81248L121.566 6.74942C122.727 8.0108 123.8 9.3499 124.78 10.7575L125.142 11.278L125.488 11.8159L126.179 12.909L126.472 13.4121C125.745 12.7899 124.977 12.2161 124.175 11.6944C120.029 4.84083 112.342 8.4151 112.342 8.4151C114.069 8.22424 115.468 9.83787 118.682 11.4168C121.428 12.7702 123.294 12.1976 123.778 11.9894C124.883 12.6314 125.799 13.2733 126.334 13.6551C126.665 13.897 126.937 14.2115 127.129 14.5747L127.423 15.1472C128.2 16.6711 128.87 18.2481 129.426 19.8667L129.824 21.0812L129.927 21.3935L130.014 21.6885L130.187 22.3131C130.428 23.1286 130.584 23.9788 130.774 24.8116C130.826 25.0199 130.86 25.2281 130.895 25.4363C130.408 24.6686 129.865 23.9379 129.271 23.2501C127.302 15.4769 118.923 16.6394 118.923 16.6394C120.634 16.9691 121.48 18.9297 124.106 21.3762C126.352 23.4756 128.286 23.4756 128.822 23.4236C129.426 24.0829 129.91 24.6728 130.273 25.124C130.793 25.7421 131.112 26.5048 131.188 27.3102L131.327 28.5768L131.378 28.9064V29.2188L131.413 29.8607L131.465 30.5027C131.465 30.7109 131.465 30.9191 131.482 31.1274C131.499 31.3356 131.499 31.9775 131.499 32.4113L131.465 33.6953C131.465 33.9035 131.448 34.1117 131.43 34.3199L131.396 34.9619C131.327 35.8815 131.223 36.8011 131.085 37.7033C130.921 36.9685 130.713 36.2442 130.463 35.5345C131.396 27.5531 123.138 25.6445 123.138 25.6445C124.607 26.5641 124.728 28.6982 126.3 31.9255C127.664 34.7016 129.478 35.3957 129.997 35.5345C130.187 36.0376 130.359 36.4888 130.497 36.9052C130.851 37.9014 130.923 38.9764 130.705 40.011H130.688C130.34 41.6665 129.879 43.2957 129.306 44.8866C128.716 46.4777 128.03 48.0306 127.25 49.5366C127.025 49.9704 126.783 50.4041 126.542 50.8206C126.67 49.9582 126.751 49.0893 126.783 48.2179C130.567 41.1214 123.588 36.3153 123.588 36.3153C124.624 37.7033 123.95 39.7334 124.227 43.325C124.469 46.3787 125.92 47.6974 126.334 48.0271V48.3567C126.334 50.3087 125.731 52.2124 124.607 53.8049H124.59C123.615 55.1787 122.547 56.4831 121.394 57.7088C121.1 58.0038 120.824 58.3161 120.513 58.6111L119.597 59.4786C119.58 59.4786 119.597 59.4786 119.58 59.4613C119.856 58.9755 120.098 58.4723 120.323 58.0038C126.542 52.9374 121.964 45.7888 121.964 45.7888C122.378 47.4719 120.979 49.0855 119.856 52.5036C118.906 55.4185 119.718 57.1883 119.977 57.6394C119.804 58.0906 119.632 58.4896 119.459 58.854C119.064 59.7392 118.459 60.5137 117.697 61.1096C116.389 62.1654 115.01 63.1279 113.568 63.9898C112.739 64.4757 111.875 64.9441 111.012 65.3779C111.374 65.0135 111.703 64.6318 112.014 64.2501C117.956 61.4913 115.779 54.8807 115.779 54.8807C115.762 56.3208 114.328 57.3098 112.739 59.791C111.409 61.9078 111.703 63.4867 111.806 63.9031C111.616 64.1634 111.443 64.4063 111.271 64.6145C110.703 65.3332 109.967 65.8995 109.129 66.2628H109.111C107.571 66.9153 105.99 67.466 104.378 67.9111H104.361C104.149 67.9727 103.961 68.0996 103.825 68.274C103.689 68.4483 103.61 68.6613 103.601 68.8828C103.594 69.0527 103.628 69.2217 103.699 69.376C103.77 69.5303 103.877 69.6655 104.01 69.7705C104.143 69.8755 104.299 69.9473 104.465 69.9799C104.631 70.0126 104.803 70.0053 104.965 69.9585C106.649 69.4626 108.299 68.8599 109.906 68.1541C111.504 67.4223 113.051 66.5817 114.536 65.6382C115.434 65.083 116.298 64.4583 117.144 63.8163C118.288 62.9486 119.654 62.4251 121.083 62.3068C128.545 65.1871 132.432 57.6394 132.432 57.6394C131.188 58.8367 129.098 58.4202 125.591 59.149C122.603 59.7736 121.48 61.3699 121.221 61.8383C120.495 61.9251 119.856 61.9945 119.338 62.0292L120.737 60.7452L121.653 59.8083C121.964 59.496 122.257 59.149 122.551 58.8367C123.719 57.5286 124.798 56.1432 125.781 54.6898L125.851 54.6031C126.326 53.8905 126.974 53.3113 127.734 52.92L128.114 52.7292H128.096C136.094 52.4342 136.716 43.9496 136.716 43.9496C136.043 45.5459 133.952 45.9797 131.016 48.0444Z" fill="#D8463F"/>
<defs>
<clipPath id="clip0">
<rect width="50" height="50" fill="white" transform="translate(43.6 7)"/>
</clipPath>
</defs>
</svg>
