<svg width="138" height="70" viewBox="0 0 138 70" fill="none" xmlns="http://www.w3.org/2000/svg">
<path d="M6.18422 48.0444C8.68906 49.7969 9.08638 51.7055 9.15548 52.2433L10.2611 52.868C9.72554 51.9831 9.22457 51.0808 8.77543 50.1612C8.00574 48.5883 7.34205 46.9652 6.78884 45.303C6.71974 45.1121 6.65064 44.9386 6.59882 44.7478C6.17683 43.3852 5.53488 42.1015 4.6986 40.9479L4.52585 40.705C-2.48768 36.8531 0.742688 28.9932 0.742688 28.9932C0.63904 30.7283 2.29741 32.047 4.00761 35.2222C5.47596 37.9115 4.99227 39.8028 4.80225 40.306C5.16502 40.8612 5.49324 41.347 5.78691 41.7461C5.68326 41.2429 5.56233 40.7397 5.47596 40.2365C5.14588 38.519 4.94379 36.7791 4.87135 35.0313L4.8368 34.3893C4.8368 34.1638 4.81952 33.9382 4.81952 33.73V32.4287C4.8368 31.9775 4.87135 31.5438 4.88862 31.11C4.90589 30.6762 4.90589 30.6762 4.92317 30.468L4.97499 29.8087C5.01241 29.3796 4.98915 28.9473 4.90589 28.5247L4.40493 26.0436C-0.708388 19.8667 5.16502 13.7418 5.16502 13.7418C4.4222 15.3207 5.49324 17.1599 5.9251 20.7342C6.30515 23.7879 5.16502 25.3669 4.80225 25.7659C4.95772 26.4947 5.09592 27.1193 5.23411 27.6225L5.28594 27.2234C5.33776 26.7896 5.44141 26.3732 5.51051 25.9395L5.64871 25.2975C5.67827 25.0859 5.72448 24.8771 5.78691 24.6728C5.9942 23.8227 6.18422 22.9725 6.44334 22.157L6.63337 21.5323L6.71974 21.22L6.84066 20.9077L7.27253 19.6758C7.54893 18.9644 7.8426 18.2704 8.15354 17.559C8.71536 16.3113 9.0433 14.9702 9.12093 13.603C9.1382 13.2907 9.15548 12.9784 9.19002 12.6661C6.44335 5.13579 14.0097 1.33596 14.0097 1.33596C12.8004 2.58522 13.1805 4.68467 12.4031 8.18954C11.7294 11.1912 10.1229 12.2843 9.67372 12.5446C9.51824 13.5683 9.43187 14.4358 9.39732 15.0258L9.43187 14.9737L9.74282 14.4011L10.071 13.8286L10.7447 12.7181L11.453 11.6424L11.8158 11.1218L12.2131 10.6013C12.6162 10.0461 13.0308 9.50821 13.4569 8.98768C14.0615 8.20689 14.8907 7.09644 15.6162 6.2983C15.9586 5.91998 16.2438 5.49323 16.4627 5.03169C19.624 -1.63103 27.3112 0.242856 27.3112 0.242856C25.5837 0.346961 24.4781 2.18615 21.576 4.2856C19.2612 5.95128 17.4473 5.84718 16.7736 5.72572L16.5145 5.81248L15.6335 6.74942C14.4733 8.0108 13.3998 9.3499 12.4204 10.7575L12.0576 11.278L11.7121 11.8159L11.0211 12.909L10.7275 13.4121C11.4553 12.7899 12.2227 12.2161 13.025 11.6944C17.1709 4.84083 24.8582 8.4151 24.8582 8.4151C23.1307 8.22424 21.7315 9.83787 18.5184 11.4168C15.7717 12.7702 13.906 12.1976 13.4223 11.9894C12.3167 12.6314 11.4012 13.2733 10.8657 13.6551C10.5347 13.897 10.2629 14.2115 10.071 14.5747L9.77736 15.1472C8.99967 16.6711 8.33005 18.2481 7.7735 19.8667L7.37618 21.0812L7.27253 21.3935L7.18616 21.6885L7.01341 22.3131C6.77156 23.1286 6.61609 23.9788 6.42607 24.8116C6.37425 25.0199 6.3397 25.2281 6.30515 25.4363C6.79242 24.6686 7.33516 23.9379 7.92897 23.2501C9.89829 15.4769 18.2765 16.6394 18.2765 16.6394C16.5663 16.9691 15.7199 18.9297 13.0941 21.3762C10.8484 23.4756 8.91363 23.4756 8.37811 23.4236C7.7735 24.0829 7.28981 24.6728 6.92704 25.124C6.40738 25.7421 6.08795 26.5048 6.01148 27.3102L5.87328 28.5768L5.82146 28.9064V29.2188L5.78691 29.8607L5.73508 30.5027C5.73508 30.7109 5.73508 30.9191 5.71781 31.1274C5.70053 31.3356 5.70053 31.9775 5.70053 32.4113L5.73508 33.6953C5.73508 33.9035 5.75236 34.1117 5.76963 34.3199L5.80418 34.9619C5.87328 35.8815 5.97693 36.8011 6.11513 37.7033C6.27881 36.9685 6.48648 36.2442 6.73701 35.5345C5.80418 27.5531 14.0615 25.6445 14.0615 25.6445C12.5931 26.5641 12.4722 28.6982 10.9002 31.9255C9.53552 34.7016 7.72167 35.3957 7.20343 35.5345C7.01341 36.0376 6.84066 36.4888 6.70247 36.9052C6.34914 37.9014 6.27739 38.9764 6.49517 40.011H6.51244C6.85958 41.6665 7.32136 43.2957 7.89442 44.8866C8.4836 46.4777 9.17014 48.0306 9.95011 49.5366C10.1747 49.9704 10.4165 50.4041 10.6584 50.8206C10.5296 49.9582 10.4489 49.0893 10.4165 48.2179C6.63337 41.1214 13.6124 36.3153 13.6124 36.3153C12.5759 37.7033 13.2496 39.7334 12.9732 43.325C12.7313 46.3787 11.2803 47.6974 10.8657 48.0271V48.3567C10.8657 50.3087 11.4693 52.2124 12.5931 53.8049H12.6104C13.5848 55.1787 14.6526 56.4831 15.8062 57.7088C16.0999 58.0038 16.3763 58.3161 16.6873 58.6111L17.6028 59.4786C17.6201 59.4786 17.6028 59.4786 17.6201 59.4613C17.3437 58.9755 17.1018 58.4723 16.8773 58.0038C10.6584 52.9374 15.2362 45.7888 15.2362 45.7888C14.8216 47.4719 16.2208 49.0855 17.3437 52.5036C18.2938 55.4185 17.4819 57.1883 17.2228 57.6394C17.3955 58.0906 17.5683 58.4896 17.741 58.854C18.136 59.7392 18.741 60.5137 19.503 61.1096C20.8105 62.1654 22.1902 63.1279 23.6317 63.9898C24.4609 64.4757 25.3246 64.9441 26.1883 65.3779C25.8256 65.0135 25.4974 64.6318 25.1864 64.2501C19.2439 61.4913 21.4205 54.8807 21.4205 54.8807C21.4378 56.3208 22.8716 57.3098 24.4609 59.791C25.791 61.9078 25.4974 63.4867 25.3937 63.9031C25.5837 64.1634 25.7565 64.4063 25.9292 64.6145C26.4967 65.3332 27.2327 65.8995 28.0713 66.2628H28.0886C29.6289 66.9153 31.21 67.466 32.8218 67.9111H32.8391C33.0512 67.9727 33.2386 68.0996 33.375 68.274C33.5114 68.4483 33.5898 68.6613 33.5992 68.8828C33.6057 69.0527 33.5721 69.2217 33.501 69.376C33.4299 69.5303 33.3234 69.6655 33.1902 69.7705C33.057 69.8755 32.901 69.9473 32.7349 69.9799C32.5687 70.0126 32.3973 70.0053 32.2345 69.9585C30.5513 69.4626 28.9011 68.8599 27.2939 68.1541C25.6955 67.4223 24.1487 66.5817 22.6643 65.6382C21.766 65.083 20.9023 64.4583 20.0558 63.8163C18.9118 62.9486 17.5459 62.4251 16.1172 62.3068C8.65451 65.1871 4.7677 57.6394 4.7677 57.6394C6.01148 58.8367 8.10172 58.4202 11.6085 59.149C14.597 59.7736 15.7199 61.3699 15.979 61.8383C16.7045 61.9251 17.3437 61.9945 17.8619 62.0292L16.4627 60.7452L15.5471 59.8083C15.2362 59.496 14.9425 59.149 14.6488 58.8367C13.4808 57.5286 12.4016 56.1432 11.4185 54.6898L11.3494 54.6031C10.8742 53.8905 10.2262 53.3113 9.46642 52.92L9.08638 52.7292H9.10365C1.10546 52.4342 0.483567 43.9496 0.483567 43.9496C1.15728 45.5459 3.24752 45.9797 6.18422 48.0444Z" fill="#D8463F"/>
<g clip-path="url(#clip0)">
<path d="M72.7885 50.4427H71.1492V42.4099C71.1492 42.1925 71.0628 41.984 70.9091 41.8303C70.7554 41.6766 70.5469 41.5902 70.3295 41.5902C70.1121 41.5902 69.9036 41.6766 69.7499 41.8303C69.5962 41.984 69.5098 42.1925 69.5098 42.4099V50.4427H48.1984V34.0493H55.018C55.2354 34.0493 55.4439 33.9629 55.5976 33.8092C55.7514 33.6555 55.8377 33.447 55.8377 33.2296C55.8377 33.0122 55.7514 32.8037 55.5976 32.65C55.4439 32.4963 55.2354 32.4099 55.018 32.4099H47.3787C47.1613 32.4099 46.9528 32.4963 46.7991 32.65C46.6454 32.8037 46.559 33.0122 46.559 33.2296V50.4427H44.9197C44.7023 50.4427 44.4938 50.5291 44.3401 50.6828C44.1864 50.8365 44.1 51.045 44.1 51.2624V52.9017C44.1 53.9887 44.5318 55.0311 45.3004 55.7997C46.069 56.5683 47.1114 57.0001 48.1984 57.0001H69.5098C70.5968 57.0001 71.6392 56.5683 72.4078 55.7997C73.1764 55.0311 73.6082 53.9887 73.6082 52.9017V51.2624C73.6082 51.045 73.5218 50.8365 73.3681 50.6828C73.2144 50.5291 73.0059 50.4427 72.7885 50.4427ZM71.9689 52.9017C71.9689 53.5539 71.7098 54.1793 71.2486 54.6405C70.7875 55.1017 70.162 55.3607 69.5098 55.3607H67.8705V54.5411C67.8705 54.3237 67.7841 54.1152 67.6304 53.9615C67.4767 53.8077 67.2682 53.7214 67.0508 53.7214C66.8334 53.7214 66.6249 53.8077 66.4712 53.9615C66.3175 54.1152 66.2312 54.3237 66.2312 54.5411V55.3607H51.4771V54.5411C51.4771 54.3237 51.3907 54.1152 51.237 53.9615C51.0833 53.8077 50.8748 53.7214 50.6574 53.7214C50.44 53.7214 50.2315 53.8077 50.0778 53.9615C49.9241 54.1152 49.8377 54.3237 49.8377 54.5411V55.3607H48.1984C47.5462 55.3607 46.9207 55.1017 46.4596 54.6405C45.9984 54.1793 45.7394 53.5539 45.7394 52.9017V52.082H71.9689V52.9017Z" fill="#0289C4"/>
<path d="M86.723 12.7377H88.3623C88.5797 12.7377 88.7882 12.6514 88.9419 12.4977C89.0957 12.3439 89.182 12.1355 89.182 11.9181C89.182 11.7007 89.0957 11.4922 88.9419 11.3385C88.7882 11.1847 88.5797 11.0984 88.3623 11.0984H86.723C86.0708 11.0984 85.4454 11.3575 84.9842 11.8186C84.5231 12.2798 84.264 12.9052 84.264 13.5574V14.3771H83.4443C83.2269 14.3771 83.0184 14.4634 82.8647 14.6172C82.711 14.7709 82.6246 14.9794 82.6246 15.1967C82.6246 15.4141 82.711 15.6226 82.8647 15.7763C83.0184 15.9301 83.2269 16.0164 83.4443 16.0164H84.264V18.4754C84.264 18.6928 84.3503 18.9013 84.5041 19.055C84.6578 19.2088 84.8663 19.2951 85.0837 19.2951C85.301 19.2951 85.5095 19.2088 85.6632 19.055C85.817 18.9013 85.9033 18.6928 85.9033 18.4754V16.0164H86.723C86.9404 16.0164 87.1489 15.9301 87.3026 15.7763C87.4563 15.6226 87.5427 15.4141 87.5427 15.1967C87.5427 14.9794 87.4563 14.7709 87.3026 14.6172C87.1489 14.4634 86.9404 14.3771 86.723 14.3771H85.9033V13.5574C85.9033 13.34 85.9897 13.1315 86.1434 12.9778C86.2971 12.8241 86.5056 12.7377 86.723 12.7377Z" fill="#0289C4"/>
<path d="M90.8213 7.81958H80.9853C80.3331 7.81958 79.7076 8.07865 79.2465 8.53981C78.7853 9.00096 78.5262 9.62642 78.5262 10.2786V11.9179C78.5262 12.1353 78.6126 12.3438 78.7663 12.4975C78.92 12.6513 79.1285 12.7376 79.3459 12.7376C79.5633 12.7376 79.7718 12.6513 79.9255 12.4975C80.0792 12.3438 80.1656 12.1353 80.1656 11.9179V10.2786C80.1656 10.0612 80.2519 9.85272 80.4057 9.699C80.5594 9.54528 80.7679 9.45892 80.9853 9.45892H90.8213C91.0387 9.45892 91.2472 9.54528 91.4009 9.699C91.5546 9.85272 91.641 10.0612 91.641 10.2786V20.1147C91.641 20.3321 91.5546 20.5405 91.4009 20.6943C91.2472 20.848 91.0387 20.9343 90.8213 20.9343H80.9853C80.7679 20.9343 80.5594 20.848 80.4057 20.6943C80.2519 20.5405 80.1656 20.3321 80.1656 20.1147V15.1966C80.1656 14.9792 80.0792 14.7708 79.9255 14.617C79.7718 14.4633 79.5633 14.377 79.3459 14.377C79.1285 14.377 78.92 14.4633 78.7663 14.617C78.6126 14.7708 78.5262 14.9792 78.5262 15.1966V20.1147C78.5262 20.7668 78.7853 21.3923 79.2465 21.8534C79.7076 22.3146 80.3331 22.5737 80.9853 22.5737H90.8213C91.4735 22.5737 92.099 22.3146 92.5601 21.8534C93.0213 21.3923 93.2803 20.7668 93.2803 20.1147V10.2786C93.2803 9.62642 93.0213 9.00096 92.5601 8.53981C92.099 8.07865 91.4735 7.81958 90.8213 7.81958Z" fill="#0289C4"/>
<path d="M82.6246 40.6066C82.6246 41.255 82.8169 41.8889 83.1772 42.4281C83.5375 42.9673 84.0495 43.3875 84.6486 43.6357C85.2477 43.8839 85.907 43.9488 86.543 43.8223C87.179 43.6958 87.7632 43.3835 88.2217 42.925C88.6803 42.4664 88.9925 41.8822 89.119 41.2462C89.2455 40.6102 89.1806 39.951 88.9324 39.3519C88.6843 38.7528 88.2641 38.2407 87.7249 37.8804C87.1857 37.5202 86.5518 37.3279 85.9033 37.3279C85.0338 37.3279 84.1998 37.6733 83.5849 38.2882C82.9701 38.9031 82.6246 39.737 82.6246 40.6066ZM87.5427 40.6066C87.5427 40.9308 87.4465 41.2478 87.2664 41.5173C87.0863 41.7869 86.8302 41.9971 86.5307 42.1211C86.2311 42.2452 85.9015 42.2777 85.5835 42.2144C85.2655 42.1512 84.9734 41.995 84.7441 41.7658C84.5149 41.5365 84.3587 41.2444 84.2955 40.9264C84.2322 40.6084 84.2647 40.2788 84.3888 39.9792C84.5128 39.6797 84.723 39.4236 84.9926 39.2435C85.2621 39.0634 85.5791 38.9672 85.9033 38.9672C86.3381 38.9672 86.7551 39.1399 87.0625 39.4474C87.37 39.7548 87.5427 40.1718 87.5427 40.6066Z" fill="#0289C4"/>
<path d="M90.8213 33.2295H80.9853C80.3331 33.2295 79.7076 33.4886 79.2465 33.9497C78.7853 34.4109 78.5262 35.0363 78.5262 35.6885V45.5246C78.5262 46.1767 78.7853 46.8022 79.2465 47.2634C79.7076 47.7245 80.3331 47.9836 80.9853 47.9836H90.8213C91.4735 47.9836 92.099 47.7245 92.5601 47.2634C93.0213 46.8022 93.2803 46.1767 93.2803 45.5246V43.8852C93.2803 43.6678 93.194 43.4593 93.0403 43.3056C92.8866 43.1519 92.6781 43.0656 92.4607 43.0656C92.2433 43.0656 92.0348 43.1519 91.8811 43.3056C91.7274 43.4593 91.641 43.6678 91.641 43.8852V45.5246C91.641 45.742 91.5546 45.9504 91.4009 46.1042C91.2472 46.2579 91.0387 46.3442 90.8213 46.3442H80.9853C80.7679 46.3442 80.5594 46.2579 80.4057 46.1042C80.2519 45.9504 80.1656 45.742 80.1656 45.5246V35.6885C80.1656 35.4711 80.2519 35.2626 80.4057 35.1089C80.5594 34.9552 80.7679 34.8688 80.9853 34.8688H90.8213C91.0387 34.8688 91.2472 34.9552 91.4009 35.1089C91.5546 35.2626 91.641 35.4711 91.641 35.6885V40.6065C91.641 40.8239 91.7274 41.0324 91.8811 41.1861C92.0348 41.3399 92.2433 41.4262 92.4607 41.4262C92.6781 41.4262 92.8866 41.3399 93.0403 41.1861C93.194 41.0324 93.2803 40.8239 93.2803 40.6065V35.6885C93.2803 35.0363 93.0213 34.4109 92.5601 33.9497C92.099 33.4886 91.4735 33.2295 90.8213 33.2295Z" fill="#0289C4"/>
<path d="M62.518 17.5328C62.6484 17.6136 62.799 17.6562 62.9524 17.6557C63.0807 17.655 63.2071 17.6241 63.3213 17.5656L68.2393 15.1065C68.3736 15.0378 68.4862 14.9333 68.5649 14.8045C68.6436 14.6758 68.6852 14.5279 68.6852 14.377C68.6852 14.2262 68.6436 14.0783 68.5649 13.9495C68.4862 13.8208 68.3736 13.7163 68.2393 13.6475L63.3213 11.1885C63.1965 11.1256 63.0577 11.0957 62.9181 11.1015C62.7785 11.1074 62.6427 11.1488 62.5236 11.2219C62.4046 11.295 62.3061 11.3973 62.2377 11.5192C62.1693 11.641 62.1332 11.7783 62.1328 11.918V16.8361C62.1325 16.9754 62.1677 17.1124 62.2351 17.2343C62.3025 17.3562 62.3999 17.459 62.518 17.5328ZM63.7721 13.2459L66.0344 14.377L63.7721 15.5082V13.2459Z" fill="#0289C4"/>
<path d="M64.5918 21.7541C66.0508 21.7541 67.4771 21.3214 68.6903 20.5108C69.9034 19.7002 70.849 18.5481 71.4073 17.2001C71.9657 15.8521 72.1117 14.3689 71.8271 12.9379C71.5425 11.5069 70.8399 10.1924 69.8082 9.16069C68.7765 8.12899 67.462 7.4264 66.031 7.14175C64.6 6.85711 63.1167 7.0032 61.7687 7.56155C60.4207 8.1199 59.2686 9.06543 58.458 10.2786C57.6474 11.4917 57.2148 12.918 57.2148 14.3771C57.2148 16.3336 57.992 18.2099 59.3754 19.5934C60.7589 20.9769 62.6353 21.7541 64.5918 21.7541ZM64.5918 8.63935C65.7266 8.63935 66.8359 8.97586 67.7795 9.60633C68.7231 10.2368 69.4585 11.1329 69.8927 12.1813C70.327 13.2298 70.4407 14.3834 70.2193 15.4964C69.9979 16.6094 69.4514 17.6318 68.649 18.4342C67.8465 19.2367 66.8242 19.7831 65.7112 20.0045C64.5982 20.2259 63.4445 20.1123 62.3961 19.678C61.3476 19.2437 60.4515 18.5083 59.8211 17.5648C59.1906 16.6212 58.8541 15.5119 58.8541 14.3771C58.8541 12.8553 59.4586 11.3959 60.5346 10.3199C61.6107 9.24385 63.0701 8.63935 64.5918 8.63935Z" fill="#0289C4"/>
<path d="M72.7885 25.0328C72.9158 25.0328 73.0413 25.0032 73.1551 24.9463C73.2689 24.8893 73.3679 24.8067 73.4442 24.7049L75.9033 21.4262C76.0337 21.2523 76.0897 21.0337 76.059 20.8185C76.0282 20.6033 75.9132 20.4091 75.7393 20.2787C75.5654 20.1483 75.3468 20.0922 75.1316 20.123C74.9164 20.1537 74.7222 20.2687 74.5918 20.4426L72.1328 23.7213C72.0023 23.8952 71.9463 24.1138 71.9771 24.329C72.0078 24.5442 72.1228 24.7384 72.2967 24.8689C72.4386 24.9753 72.6112 25.0328 72.7885 25.0328Z" fill="#0289C4"/>
<path d="M74.5918 27.9836C74.6681 28.0854 74.7671 28.1681 74.881 28.225C74.9948 28.2819 75.1203 28.3115 75.2475 28.3115C75.4249 28.3115 75.5974 28.254 75.7393 28.1476L79.018 25.6885C79.1919 25.5581 79.3069 25.3639 79.3376 25.1487C79.3684 24.9335 79.3124 24.7149 79.1819 24.541C79.0515 24.3671 78.8573 24.2521 78.6421 24.2214C78.4269 24.1906 78.2083 24.2466 78.0344 24.3771L74.7557 26.8361C74.5818 26.9665 74.4668 27.1607 74.4361 27.3759C74.4054 27.5911 74.4614 27.8097 74.5918 27.9836Z" fill="#0289C4"/>
<path d="M82.6246 29.7868C82.6051 29.6782 82.5639 29.5746 82.5034 29.4822C82.4429 29.3899 82.3643 29.3107 82.2725 29.2495C82.1806 29.1882 82.0773 29.1462 81.9688 29.1258C81.8603 29.1055 81.7488 29.1073 81.641 29.1311L77.5426 29.9508C77.435 29.9615 77.3305 29.9934 77.2352 30.0445C77.1399 30.0957 77.0555 30.1651 76.987 30.2488C76.8487 30.4179 76.7832 30.635 76.8049 30.8524C76.8267 31.0698 76.9339 31.2697 77.103 31.408C77.2721 31.5464 77.4892 31.6119 77.7066 31.5901H77.8705L81.9689 30.7705C82.0775 30.751 82.1811 30.7097 82.2735 30.6492C82.3658 30.5887 82.445 30.5102 82.5062 30.4183C82.5675 30.3265 82.6095 30.2232 82.6299 30.1147C82.6502 30.0062 82.6484 29.8946 82.6246 29.7868Z" fill="#0289C4"/>
<path d="M44.9197 29.9509H54.7557C54.9731 29.9509 55.1816 29.8645 55.3353 29.7108C55.4891 29.5571 55.5754 29.3486 55.5754 29.1312V16.0164C55.5754 15.7991 55.4891 15.5906 55.3353 15.4369C55.1816 15.2831 54.9731 15.1968 54.7557 15.1968H44.9197C44.7023 15.1968 44.4938 15.2831 44.3401 15.4369C44.1864 15.5906 44.1 15.7991 44.1 16.0164V29.1312C44.1 29.3486 44.1864 29.5571 44.3401 29.7108C44.4938 29.8645 44.7023 29.9509 44.9197 29.9509ZM45.7394 16.8361H53.9361V28.3115H45.7394V16.8361Z" fill="#0289C4"/>
<path d="M51.4771 18.4753H49.8377C49.6203 18.4753 49.4118 18.5617 49.2581 18.7154C49.1044 18.8691 49.018 19.0776 49.018 19.295C49.018 19.5124 49.1044 19.7209 49.2581 19.8746C49.4118 20.0283 49.6203 20.1147 49.8377 20.1147H51.4771C51.6944 20.1147 51.9029 20.0283 52.0566 19.8746C52.2104 19.7209 52.2967 19.5124 52.2967 19.295C52.2967 19.0776 52.2104 18.8691 52.0566 18.7154C51.9029 18.5617 51.6944 18.4753 51.4771 18.4753Z" fill="#0289C4"/>
<path d="M51.4771 21.7542H48.1984C47.981 21.7542 47.7725 21.8405 47.6188 21.9942C47.4651 22.1479 47.3787 22.3564 47.3787 22.5738C47.3787 22.7912 47.4651 22.9997 47.6188 23.1534C47.7725 23.3071 47.981 23.3935 48.1984 23.3935H51.4771C51.6944 23.3935 51.9029 23.3071 52.0566 23.1534C52.2104 22.9997 52.2967 22.7912 52.2967 22.5738C52.2967 22.3564 52.2104 22.1479 52.0566 21.9942C51.9029 21.8405 51.6944 21.7542 51.4771 21.7542Z" fill="#0289C4"/>
<path d="M51.4771 25.0327H48.1984C47.981 25.0327 47.7725 25.1191 47.6188 25.2728C47.4651 25.4265 47.3787 25.635 47.3787 25.8524C47.3787 26.0698 47.4651 26.2783 47.6188 26.432C47.7725 26.5857 47.981 26.6721 48.1984 26.6721H51.4771C51.6944 26.6721 51.9029 26.5857 52.0566 26.432C52.2104 26.2783 52.2967 26.0698 52.2967 25.8524C52.2967 25.635 52.2104 25.4265 52.0566 25.2728C51.9029 25.1191 51.6944 25.0327 51.4771 25.0327Z" fill="#0289C4"/>
<path d="M72.0672 29.7051C72.0134 29.6114 71.9417 29.5293 71.8561 29.4634C71.7705 29.3975 71.6728 29.349 71.5686 29.3209C71.4643 29.2927 71.3555 29.2854 71.2484 29.2992C71.1412 29.3131 71.0379 29.348 70.9443 29.4018C70.8506 29.4556 70.7685 29.5274 70.7026 29.6129C70.6366 29.6985 70.5882 29.7962 70.5601 29.9005C70.5319 30.0047 70.5245 30.1135 70.5384 30.2207C70.5523 30.3278 70.5872 30.4311 70.641 30.5247L74.2557 36.7788L61.141 41.6969C61.141 41.6969 61.141 41.6969 61.0836 41.6969H61.018L58.8869 42.9264L57.4689 43.7461C57.2822 43.854 57.076 43.924 56.8622 43.9521C56.6484 43.9803 56.4312 43.966 56.223 43.91C55.8046 43.797 55.448 43.5229 55.2311 43.1477L53.5918 40.3116C53.3989 39.9406 53.3552 39.5098 53.4695 39.1076C53.5837 38.7053 53.8474 38.3619 54.2066 38.1477L57.0426 36.5084L59.0918 40.0575C59.164 40.1826 59.268 40.2864 59.3932 40.3584C59.5185 40.4303 59.6605 40.4679 59.8049 40.4674C59.9491 40.4679 60.0908 40.4305 60.2159 40.3588C60.341 40.2871 60.4449 40.1837 60.5172 40.059C60.5896 39.9342 60.6277 39.7927 60.6279 39.6485C60.628 39.5044 60.5901 39.3627 60.518 39.2379L58.4033 35.5821L68.6902 27.0985L69.0262 27.6805C69.0801 27.7741 69.1518 27.8563 69.2374 27.9222C69.3229 27.9881 69.4206 28.0365 69.5249 28.0647C69.6292 28.0929 69.738 28.1002 69.8451 28.0863C69.9522 28.0724 70.0555 28.0376 70.1492 27.9838C70.2428 27.9299 70.325 27.8582 70.3909 27.7726C70.4568 27.6871 70.5052 27.5894 70.5334 27.4851C70.5616 27.3808 70.5689 27.272 70.555 27.1649C70.5411 27.0578 70.5063 26.9545 70.4525 26.8608L69.6328 25.4428C69.5727 25.3401 69.491 25.2517 69.3933 25.1838C69.2957 25.1158 69.1844 25.0699 69.0672 25.0493C68.9494 25.0271 68.8282 25.031 68.712 25.0608C68.5959 25.0905 68.4877 25.1454 68.3951 25.2215L56.9197 34.6805L53.4279 36.6969C52.8012 37.0619 52.3133 37.6243 52.0404 38.2962C51.7675 38.968 51.725 39.7114 51.9197 40.41L51.1 40.8772C50.6777 41.1197 50.3369 41.4822 50.1208 41.9187C49.9047 42.3551 49.8231 42.8459 49.8863 43.3288C49.9496 43.8117 50.1547 44.265 50.4759 44.6311C50.797 44.9972 51.2196 45.2598 51.6902 45.3854C51.8988 45.4407 52.1137 45.4682 52.3295 45.4674C52.7607 45.4656 53.1842 45.3527 53.559 45.1395L54.3787 44.6723C54.7724 45.079 55.2676 45.3733 55.8131 45.5247C56.0932 45.6031 56.3829 45.6417 56.6738 45.6395C57.2499 45.6408 57.8159 45.488 58.3131 45.1969L59.0262 44.787L60.6656 47.6313C60.9914 48.1946 61.5271 48.6058 62.1555 48.7748C62.7839 48.9438 63.4536 48.8568 64.018 48.5329C64.298 48.3716 64.5435 48.1567 64.7404 47.9004C64.9372 47.6442 65.0817 47.3516 65.1654 47.0395C65.2492 46.7274 65.2706 46.4018 65.2284 46.0814C65.1862 45.761 65.0813 45.4521 64.9197 45.1723L63.4279 42.5739L75.723 37.9592C75.8345 37.9173 75.9355 37.8516 76.019 37.7666C76.1025 37.6817 76.1665 37.5796 76.2066 37.4674C76.2464 37.3565 76.262 37.2384 76.2521 37.1209C76.2422 37.0035 76.2071 36.8897 76.1492 36.787L72.0672 29.7051ZM52.7066 43.7133C52.6132 43.7672 52.5101 43.8023 52.4032 43.8163C52.2964 43.8304 52.1877 43.8232 52.0836 43.7952C51.8736 43.7407 51.6938 43.6051 51.5836 43.4182C51.5296 43.3248 51.4946 43.2218 51.4806 43.1149C51.4665 43.008 51.4737 42.8994 51.5016 42.7952C51.5296 42.6906 51.5781 42.5925 51.6442 42.5067C51.7103 42.4208 51.7928 42.349 51.8869 42.2952L52.6 41.8854L53.4197 43.3034L52.7066 43.7133ZM63.4934 46.0084C63.5474 46.1017 63.5824 46.2048 63.5965 46.3117C63.6106 46.4186 63.6034 46.5272 63.5754 46.6313C63.517 46.8397 63.3785 47.0165 63.1902 47.1231C63.0029 47.2307 62.7808 47.26 62.5721 47.2047C62.3634 47.1495 62.1849 47.0141 62.0754 46.828L60.4361 43.9838L61.7967 43.2051H61.8623L63.4934 46.0084Z" fill="#0289C4"/>
</g>
<path d="M131.016 48.0444C128.511 49.7969 128.114 51.7055 128.044 52.2433L126.939 52.868C127.474 51.9831 127.975 51.0808 128.425 50.1612C129.194 48.5883 129.858 46.9652 130.411 45.303C130.48 45.1121 130.549 44.9386 130.601 44.7478C131.023 43.3852 131.665 42.1015 132.501 40.9479L132.674 40.705C139.688 36.8531 136.457 28.9932 136.457 28.9932C136.561 30.7283 134.903 32.047 133.192 35.2222C131.724 37.9115 132.208 39.8028 132.398 40.306C132.035 40.8612 131.707 41.347 131.413 41.7461C131.517 41.2429 131.638 40.7397 131.724 40.2365C132.054 38.519 132.256 36.7791 132.329 35.0313L132.363 34.3893C132.363 34.1638 132.38 33.9382 132.38 33.73V32.4287C132.363 31.9775 132.329 31.5438 132.311 31.11C132.294 30.6762 132.294 30.6762 132.277 30.468L132.225 29.8087C132.188 29.3796 132.211 28.9473 132.294 28.5247L132.795 26.0436C137.908 19.8667 132.035 13.7418 132.035 13.7418C132.778 15.3207 131.707 17.1599 131.275 20.7342C130.895 23.7879 132.035 25.3669 132.398 25.7659C132.242 26.4947 132.104 27.1193 131.966 27.6225L131.914 27.2234C131.862 26.7896 131.759 26.3732 131.689 25.9395L131.551 25.2975C131.522 25.0859 131.475 24.8771 131.413 24.6728C131.206 23.8227 131.016 22.9725 130.757 22.157L130.567 21.5323L130.48 21.22L130.359 20.9077L129.927 19.6758C129.651 18.9644 129.357 18.2704 129.046 17.559C128.485 16.3113 128.157 14.9702 128.079 13.603C128.062 13.2907 128.044 12.9784 128.01 12.6661C130.757 5.13579 123.19 1.33596 123.19 1.33596C124.4 2.58522 124.019 4.68467 124.797 8.18954C125.471 11.1912 127.077 12.2843 127.526 12.5446C127.682 13.5683 127.768 14.4358 127.803 15.0258L127.768 14.9737L127.457 14.4011L127.129 13.8286L126.455 12.7181L125.747 11.6424L125.384 11.1218L124.987 10.6013C124.584 10.0461 124.169 9.50821 123.743 8.98768C123.138 8.20689 122.309 7.09644 121.584 6.2983C121.241 5.91998 120.956 5.49323 120.737 5.03169C117.576 -1.63103 109.889 0.242856 109.889 0.242856C111.616 0.346961 112.722 2.18615 115.624 4.2856C117.939 5.95128 119.753 5.84718 120.426 5.72572L120.685 5.81248L121.566 6.74942C122.727 8.0108 123.8 9.3499 124.78 10.7575L125.142 11.278L125.488 11.8159L126.179 12.909L126.472 13.4121C125.745 12.7899 124.977 12.2161 124.175 11.6944C120.029 4.84083 112.342 8.4151 112.342 8.4151C114.069 8.22424 115.468 9.83787 118.682 11.4168C121.428 12.7702 123.294 12.1976 123.778 11.9894C124.883 12.6314 125.799 13.2733 126.334 13.6551C126.665 13.897 126.937 14.2115 127.129 14.5747L127.423 15.1472C128.2 16.6711 128.87 18.2481 129.426 19.8667L129.824 21.0812L129.927 21.3935L130.014 21.6885L130.187 22.3131C130.428 23.1286 130.584 23.9788 130.774 24.8116C130.826 25.0199 130.86 25.2281 130.895 25.4363C130.408 24.6686 129.865 23.9379 129.271 23.2501C127.302 15.4769 118.923 16.6394 118.923 16.6394C120.634 16.9691 121.48 18.9297 124.106 21.3762C126.352 23.4756 128.286 23.4756 128.822 23.4236C129.426 24.0829 129.91 24.6728 130.273 25.124C130.793 25.7421 131.112 26.5048 131.188 27.3102L131.327 28.5768L131.378 28.9064V29.2188L131.413 29.8607L131.465 30.5027C131.465 30.7109 131.465 30.9191 131.482 31.1274C131.499 31.3356 131.499 31.9775 131.499 32.4113L131.465 33.6953C131.465 33.9035 131.448 34.1117 131.43 34.3199L131.396 34.9619C131.327 35.8815 131.223 36.8011 131.085 37.7033C130.921 36.9685 130.713 36.2442 130.463 35.5345C131.396 27.5531 123.138 25.6445 123.138 25.6445C124.607 26.5641 124.728 28.6982 126.3 31.9255C127.664 34.7016 129.478 35.3957 129.997 35.5345C130.187 36.0376 130.359 36.4888 130.497 36.9052C130.851 37.9014 130.923 38.9764 130.705 40.011H130.688C130.34 41.6665 129.879 43.2957 129.306 44.8866C128.716 46.4777 128.03 48.0306 127.25 49.5366C127.025 49.9704 126.783 50.4041 126.542 50.8206C126.67 49.9582 126.751 49.0893 126.783 48.2179C130.567 41.1214 123.588 36.3153 123.588 36.3153C124.624 37.7033 123.95 39.7334 124.227 43.325C124.469 46.3787 125.92 47.6974 126.334 48.0271V48.3567C126.334 50.3087 125.731 52.2124 124.607 53.8049H124.59C123.615 55.1787 122.547 56.4831 121.394 57.7088C121.1 58.0038 120.824 58.3161 120.513 58.6111L119.597 59.4786C119.58 59.4786 119.597 59.4786 119.58 59.4613C119.856 58.9755 120.098 58.4723 120.323 58.0038C126.542 52.9374 121.964 45.7888 121.964 45.7888C122.378 47.4719 120.979 49.0855 119.856 52.5036C118.906 55.4185 119.718 57.1883 119.977 57.6394C119.804 58.0906 119.632 58.4896 119.459 58.854C119.064 59.7392 118.459 60.5137 117.697 61.1096C116.389 62.1654 115.01 63.1279 113.568 63.9898C112.739 64.4757 111.875 64.9441 111.012 65.3779C111.374 65.0135 111.703 64.6318 112.014 64.2501C117.956 61.4913 115.779 54.8807 115.779 54.8807C115.762 56.3208 114.328 57.3098 112.739 59.791C111.409 61.9078 111.703 63.4867 111.806 63.9031C111.616 64.1634 111.443 64.4063 111.271 64.6145C110.703 65.3332 109.967 65.8995 109.129 66.2628H109.111C107.571 66.9153 105.99 67.466 104.378 67.9111H104.361C104.149 67.9727 103.961 68.0996 103.825 68.274C103.689 68.4483 103.61 68.6613 103.601 68.8828C103.594 69.0527 103.628 69.2217 103.699 69.376C103.77 69.5303 103.877 69.6655 104.01 69.7705C104.143 69.8755 104.299 69.9473 104.465 69.9799C104.631 70.0126 104.803 70.0053 104.965 69.9585C106.649 69.4626 108.299 68.8599 109.906 68.1541C111.504 67.4223 113.051 66.5817 114.536 65.6382C115.434 65.083 116.298 64.4583 117.144 63.8163C118.288 62.9486 119.654 62.4251 121.083 62.3068C128.545 65.1871 132.432 57.6394 132.432 57.6394C131.188 58.8367 129.098 58.4202 125.591 59.149C122.603 59.7736 121.48 61.3699 121.221 61.8383C120.495 61.9251 119.856 61.9945 119.338 62.0292L120.737 60.7452L121.653 59.8083C121.964 59.496 122.257 59.149 122.551 58.8367C123.719 57.5286 124.798 56.1432 125.781 54.6898L125.851 54.6031C126.326 53.8905 126.974 53.3113 127.734 52.92L128.114 52.7292H128.096C136.094 52.4342 136.716 43.9496 136.716 43.9496C136.043 45.5459 133.952 45.9797 131.016 48.0444Z" fill="#D8463F"/>
<defs>
<clipPath id="clip0">
<rect width="50" height="50" fill="white" transform="translate(43.6 7)"/>
</clipPath>
</defs>
</svg>
