<svg width="138" height="70" viewBox="0 0 138 70" fill="none" xmlns="http://www.w3.org/2000/svg">
<path d="M6.18422 48.0444C8.68906 49.7969 9.08638 51.7055 9.15548 52.2433L10.2611 52.868C9.72554 51.9831 9.22457 51.0808 8.77543 50.1612C8.00574 48.5883 7.34205 46.9652 6.78884 45.303C6.71974 45.1121 6.65064 44.9386 6.59882 44.7478C6.17683 43.3852 5.53488 42.1015 4.6986 40.9479L4.52585 40.705C-2.48768 36.8531 0.742688 28.9932 0.742688 28.9932C0.63904 30.7283 2.29741 32.047 4.00761 35.2222C5.47596 37.9115 4.99227 39.8028 4.80225 40.306C5.16502 40.8612 5.49324 41.347 5.78691 41.7461C5.68326 41.2429 5.56233 40.7397 5.47596 40.2365C5.14588 38.519 4.94379 36.7791 4.87135 35.0313L4.8368 34.3893C4.8368 34.1638 4.81952 33.9382 4.81952 33.73V32.4287C4.8368 31.9775 4.87135 31.5438 4.88862 31.11C4.90589 30.6762 4.90589 30.6762 4.92317 30.468L4.97499 29.8087C5.01241 29.3796 4.98915 28.9473 4.90589 28.5247L4.40493 26.0436C-0.708388 19.8667 5.16502 13.7418 5.16502 13.7418C4.4222 15.3207 5.49324 17.1599 5.9251 20.7342C6.30515 23.7879 5.16502 25.3669 4.80225 25.7659C4.95772 26.4947 5.09592 27.1193 5.23411 27.6225L5.28594 27.2234C5.33776 26.7896 5.44141 26.3732 5.51051 25.9395L5.64871 25.2975C5.67827 25.0859 5.72448 24.8771 5.78691 24.6728C5.9942 23.8227 6.18422 22.9725 6.44334 22.157L6.63337 21.5323L6.71974 21.22L6.84066 20.9077L7.27253 19.6758C7.54893 18.9644 7.8426 18.2704 8.15354 17.559C8.71536 16.3113 9.0433 14.9702 9.12093 13.603C9.1382 13.2907 9.15548 12.9784 9.19002 12.6661C6.44335 5.13579 14.0097 1.33596 14.0097 1.33596C12.8004 2.58522 13.1805 4.68467 12.4031 8.18954C11.7294 11.1912 10.1229 12.2843 9.67372 12.5446C9.51824 13.5683 9.43187 14.4358 9.39732 15.0258L9.43187 14.9737L9.74282 14.4011L10.071 13.8286L10.7447 12.7181L11.453 11.6424L11.8158 11.1218L12.2131 10.6013C12.6162 10.0461 13.0308 9.50821 13.4569 8.98768C14.0615 8.20689 14.8907 7.09644 15.6162 6.2983C15.9586 5.91998 16.2438 5.49323 16.4627 5.03169C19.624 -1.63103 27.3112 0.242856 27.3112 0.242856C25.5837 0.346961 24.4781 2.18615 21.576 4.2856C19.2612 5.95128 17.4473 5.84718 16.7736 5.72572L16.5145 5.81248L15.6335 6.74942C14.4733 8.0108 13.3998 9.3499 12.4204 10.7575L12.0576 11.278L11.7121 11.8159L11.0211 12.909L10.7275 13.4121C11.4553 12.7899 12.2227 12.2161 13.025 11.6944C17.1709 4.84083 24.8582 8.4151 24.8582 8.4151C23.1307 8.22424 21.7315 9.83787 18.5184 11.4168C15.7717 12.7702 13.906 12.1976 13.4223 11.9894C12.3167 12.6314 11.4012 13.2733 10.8657 13.6551C10.5347 13.897 10.2629 14.2115 10.071 14.5747L9.77736 15.1472C8.99967 16.6711 8.33005 18.2481 7.7735 19.8667L7.37618 21.0812L7.27253 21.3935L7.18616 21.6885L7.01341 22.3131C6.77156 23.1286 6.61609 23.9788 6.42607 24.8116C6.37425 25.0199 6.3397 25.2281 6.30515 25.4363C6.79242 24.6686 7.33516 23.9379 7.92897 23.2501C9.89829 15.4769 18.2765 16.6394 18.2765 16.6394C16.5663 16.9691 15.7199 18.9297 13.0941 21.3762C10.8484 23.4756 8.91363 23.4756 8.37811 23.4236C7.7735 24.0829 7.28981 24.6728 6.92704 25.124C6.40738 25.7421 6.08795 26.5048 6.01148 27.3102L5.87328 28.5768L5.82146 28.9064V29.2188L5.78691 29.8607L5.73508 30.5027C5.73508 30.7109 5.73508 30.9191 5.71781 31.1274C5.70053 31.3356 5.70053 31.9775 5.70053 32.4113L5.73508 33.6953C5.73508 33.9035 5.75236 34.1117 5.76963 34.3199L5.80418 34.9619C5.87328 35.8815 5.97693 36.8011 6.11513 37.7033C6.27881 36.9685 6.48648 36.2442 6.73701 35.5345C5.80418 27.5531 14.0615 25.6445 14.0615 25.6445C12.5931 26.5641 12.4722 28.6982 10.9002 31.9255C9.53552 34.7016 7.72167 35.3957 7.20343 35.5345C7.01341 36.0376 6.84066 36.4888 6.70247 36.9052C6.34914 37.9014 6.27739 38.9764 6.49517 40.011H6.51244C6.85958 41.6665 7.32136 43.2957 7.89442 44.8866C8.4836 46.4777 9.17014 48.0306 9.95011 49.5366C10.1747 49.9704 10.4165 50.4041 10.6584 50.8206C10.5296 49.9582 10.4489 49.0893 10.4165 48.2179C6.63337 41.1214 13.6124 36.3153 13.6124 36.3153C12.5759 37.7033 13.2496 39.7334 12.9732 43.325C12.7313 46.3787 11.2803 47.6974 10.8657 48.0271V48.3567C10.8657 50.3087 11.4693 52.2124 12.5931 53.8049H12.6104C13.5848 55.1787 14.6526 56.4831 15.8062 57.7088C16.0999 58.0038 16.3763 58.3161 16.6873 58.6111L17.6028 59.4786C17.6201 59.4786 17.6028 59.4786 17.6201 59.4613C17.3437 58.9755 17.1018 58.4723 16.8773 58.0038C10.6584 52.9374 15.2362 45.7888 15.2362 45.7888C14.8216 47.4719 16.2208 49.0855 17.3437 52.5036C18.2938 55.4185 17.4819 57.1883 17.2228 57.6394C17.3955 58.0906 17.5683 58.4896 17.741 58.854C18.136 59.7392 18.741 60.5137 19.503 61.1096C20.8105 62.1654 22.1902 63.1279 23.6317 63.9898C24.4609 64.4757 25.3246 64.9441 26.1883 65.3779C25.8256 65.0135 25.4974 64.6318 25.1864 64.2501C19.2439 61.4913 21.4205 54.8807 21.4205 54.8807C21.4378 56.3208 22.8716 57.3098 24.4609 59.791C25.791 61.9078 25.4974 63.4867 25.3937 63.9031C25.5837 64.1634 25.7565 64.4063 25.9292 64.6145C26.4967 65.3332 27.2327 65.8995 28.0713 66.2628H28.0886C29.6289 66.9153 31.21 67.466 32.8218 67.9111H32.8391C33.0512 67.9727 33.2386 68.0996 33.375 68.274C33.5114 68.4483 33.5898 68.6613 33.5992 68.8828C33.6057 69.0527 33.5721 69.2217 33.501 69.376C33.4299 69.5303 33.3234 69.6655 33.1902 69.7705C33.057 69.8755 32.901 69.9473 32.7349 69.9799C32.5687 70.0126 32.3973 70.0053 32.2345 69.9585C30.5513 69.4626 28.9011 68.8599 27.2939 68.1541C25.6955 67.4223 24.1487 66.5817 22.6643 65.6382C21.766 65.083 20.9023 64.4583 20.0558 63.8163C18.9118 62.9486 17.5459 62.4251 16.1172 62.3068C8.65451 65.1871 4.7677 57.6394 4.7677 57.6394C6.01148 58.8367 8.10172 58.4202 11.6085 59.149C14.597 59.7736 15.7199 61.3699 15.979 61.8383C16.7045 61.9251 17.3437 61.9945 17.8619 62.0292L16.4627 60.7452L15.5471 59.8083C15.2362 59.496 14.9425 59.149 14.6488 58.8367C13.4808 57.5286 12.4016 56.1432 11.4185 54.6898L11.3494 54.6031C10.8742 53.8905 10.2262 53.3113 9.46642 52.92L9.08638 52.7292H9.10365C1.10546 52.4342 0.483567 43.9496 0.483567 43.9496C1.15728 45.5459 3.24752 45.9797 6.18422 48.0444Z" fill="#D8463F"/>
<path d="M52.1937 23.4063C53.5844 23.4063 54.9438 22.9939 56.1001 22.2213C57.2564 21.4487 58.1576 20.3505 58.6898 19.0657C59.2219 17.781 59.3612 16.3672 59.0899 15.0033C58.8186 13.6393 58.1489 12.3865 57.1656 11.4032C56.1822 10.4198 54.9294 9.75016 53.5655 9.47886C52.2015 9.20755 50.7878 9.3468 49.503 9.87898C48.2182 10.4112 47.1201 11.3124 46.3475 12.4687C45.5749 13.6249 45.1625 14.9844 45.1625 16.375C45.1646 18.2392 45.906 20.0264 47.2242 21.3445C48.5424 22.6627 50.3296 23.4042 52.1937 23.4063ZM49.8567 21.3181C49.8888 20.6425 50.0739 19.983 50.3979 19.3893C50.7219 18.7956 51.1765 18.2832 51.7273 17.8907C52.0351 17.9531 52.3523 17.9531 52.6602 17.8907C53.211 18.2832 53.6655 18.7956 53.9895 19.3893C54.3136 19.983 54.4986 20.6425 54.5307 21.3181C53.8003 21.6642 53.002 21.8438 52.1937 21.8438C51.3854 21.8438 50.5872 21.6642 49.8567 21.3181ZM52.975 15.5938C52.975 15.801 52.8927 15.9997 52.7462 16.1462C52.5996 16.2927 52.4009 16.375 52.1937 16.375C51.9865 16.375 51.7878 16.2927 51.6413 16.1462C51.4948 15.9997 51.4125 15.801 51.4125 15.5938V14.8125C51.4125 14.6053 51.4948 14.4066 51.6413 14.2601C51.7878 14.1136 51.9865 14.0313 52.1937 14.0313C52.4009 14.0313 52.5996 14.1136 52.7462 14.2601C52.8927 14.4066 52.975 14.6053 52.975 14.8125V15.5938ZM52.1937 10.9063C53.2851 10.9055 54.3517 11.2315 55.2561 11.8423C56.1606 12.4531 56.8614 13.3207 57.2684 14.3333C57.6753 15.346 57.7697 16.4573 57.5394 17.5241C57.3092 18.5909 56.7648 19.5643 55.9763 20.3189C55.7142 19.0368 55.0417 17.8748 54.0606 17.0087C54.3704 16.6021 54.5379 16.1049 54.5375 15.5938V14.8125C54.5375 14.1909 54.2905 13.5948 53.851 13.1552C53.4115 12.7157 52.8153 12.4688 52.1937 12.4688C51.5721 12.4688 50.976 12.7157 50.5364 13.1552C50.0969 13.5948 49.85 14.1909 49.85 14.8125V15.5938C49.8495 16.1049 50.0171 16.6021 50.3269 17.0087C49.3458 17.8748 48.6733 19.0368 48.4111 20.3189C47.6227 19.5643 47.0783 18.5909 46.848 17.5241C46.6177 16.4573 46.7121 15.346 47.1191 14.3333C47.526 13.3207 48.2269 12.4531 49.1313 11.8423C50.0358 11.2315 51.1024 10.9055 52.1937 10.9063Z" fill="#0289C4"/>
<path d="M89.6937 9.34375H67.0375C66.4161 9.34445 65.8204 9.59161 65.381 10.031C64.9416 10.4704 64.6944 11.0661 64.6937 11.6875V12.8319L60.3541 15.725C60.2471 15.7963 60.1594 15.893 60.0987 16.0064C60.038 16.1198 60.0062 16.2464 60.0062 16.375C60.0062 16.5036 60.038 16.6302 60.0987 16.7436C60.1594 16.857 60.2471 16.9537 60.3541 17.025L64.6937 19.9181V21.0625C64.6944 21.6839 64.9416 22.2796 65.381 22.719C65.8204 23.1584 66.4161 23.4055 67.0375 23.4062H89.6937C90.3151 23.4055 90.9108 23.1584 91.3502 22.719C91.7896 22.2796 92.0368 21.6839 92.0375 21.0625V11.6875C92.0368 11.0661 91.7896 10.4704 91.3502 10.031C90.9108 9.59161 90.3151 9.34445 89.6937 9.34375ZM90.475 21.0625C90.4747 21.2696 90.3924 21.4682 90.2459 21.6147C90.0994 21.7611 89.9009 21.8435 89.6937 21.8438H67.0375C66.8303 21.8435 66.6318 21.7611 66.4853 21.6147C66.3388 21.4682 66.2565 21.2696 66.2562 21.0625V16.375H64.6937V18.0402L62.1959 16.375L65.9083 13.9C66.0153 13.8287 66.1031 13.732 66.1638 13.6186C66.2245 13.5052 66.2562 13.3786 66.2562 13.25V11.6875C66.2565 11.4804 66.3388 11.2818 66.4853 11.1353C66.6318 10.9889 66.8303 10.9065 67.0375 10.9062H89.6937C89.9009 10.9065 90.0994 10.9889 90.2459 11.1353C90.3924 11.2818 90.4747 11.4804 90.475 11.6875V21.0625Z" fill="#0289C4"/>
<path d="M85.7875 20.2812C86.2189 20.2812 86.5687 19.9315 86.5687 19.5C86.5687 19.0685 86.2189 18.7188 85.7875 18.7188C85.356 18.7188 85.0062 19.0685 85.0062 19.5C85.0062 19.9315 85.356 20.2812 85.7875 20.2812Z" fill="#0289C4"/>
<path d="M88.1312 20.2812C88.5627 20.2812 88.9125 19.9315 88.9125 19.5C88.9125 19.0685 88.5627 18.7188 88.1312 18.7188C87.6998 18.7188 87.35 19.0685 87.35 19.5C87.35 19.9315 87.6998 20.2812 88.1312 20.2812Z" fill="#0289C4"/>
<path d="M69.3812 14.0312H71.725V15.5938H69.3812V14.0312Z" fill="#0289C4"/>
<path d="M73.2875 14.0312H81.8812V15.5938H73.2875V14.0312Z" fill="#0289C4"/>
<path d="M83.4437 14.0312H87.35V15.5938H83.4437V14.0312Z" fill="#0289C4"/>
<path d="M69.3812 17.1562H75.6312V18.7188H69.3812V17.1562Z" fill="#0289C4"/>
<path d="M77.1937 17.1562H79.5375V18.7188H77.1937V17.1562Z" fill="#0289C4"/>
<path d="M52.1937 39.0312C53.5844 39.0312 54.9438 38.6189 56.1001 37.8463C57.2564 37.0737 58.1576 35.9755 58.6898 34.6907C59.2219 33.4059 59.3612 31.9922 59.0899 30.6283C58.8186 29.2643 58.1489 28.0115 57.1656 27.0282C56.1822 26.0448 54.9294 25.3752 53.5655 25.1039C52.2015 24.8326 50.7878 24.9718 49.503 25.504C48.2182 26.0362 47.1201 26.9374 46.3475 28.0936C45.5749 29.2499 45.1625 30.6093 45.1625 32C45.1646 33.8642 45.906 35.6514 47.2242 36.9695C48.5424 38.2877 50.3296 39.0291 52.1937 39.0312ZM49.8567 36.9431C49.8889 36.2675 50.0739 35.608 50.3979 35.0143C50.7219 34.4206 51.1765 33.9082 51.7273 33.5157C52.0351 33.5781 52.3523 33.5781 52.6602 33.5157C53.211 33.9082 53.6655 34.4206 53.9895 35.0143C54.3136 35.608 54.4986 36.2675 54.5307 36.9431C53.8003 37.2892 53.002 37.4687 52.1937 37.4687C51.3854 37.4687 50.5872 37.2892 49.8567 36.9431ZM52.975 31.2187C52.975 31.4259 52.8927 31.6247 52.7462 31.7712C52.5996 31.9177 52.4009 32 52.1937 32C51.9865 32 51.7878 31.9177 51.6413 31.7712C51.4948 31.6247 51.4125 31.4259 51.4125 31.2187V30.4375C51.4125 30.2303 51.4948 30.0316 51.6413 29.8851C51.7878 29.7386 51.9865 29.6562 52.1937 29.6562C52.4009 29.6562 52.5996 29.7386 52.7462 29.8851C52.8927 30.0316 52.975 30.2303 52.975 30.4375V31.2187ZM52.1937 26.5313C53.2851 26.5305 54.3517 26.8565 55.2561 27.4673C56.1606 28.0781 56.8614 28.9457 57.2684 29.9583C57.6753 30.971 57.7697 32.0823 57.5394 33.1491C57.3092 34.2159 56.7648 35.1893 55.9763 35.9439C55.7142 34.6618 55.0417 33.4998 54.0606 32.6337C54.3704 32.2271 54.5379 31.7299 54.5375 31.2187V30.4375C54.5375 29.8159 54.2905 29.2198 53.851 28.7802C53.4115 28.3407 52.8153 28.0938 52.1937 28.0938C51.5721 28.0938 50.976 28.3407 50.5364 28.7802C50.0969 29.2198 49.85 29.8159 49.85 30.4375V31.2187C49.8495 31.7299 50.0171 32.2271 50.3269 32.6337C49.3458 33.4998 48.6733 34.6618 48.4111 35.9439C47.6227 35.1893 47.0783 34.2159 46.848 33.1491C46.6177 32.0823 46.7121 30.971 47.1191 29.9583C47.526 28.9457 48.2269 28.0781 49.1313 27.4673C50.0358 26.8565 51.1024 26.5305 52.1937 26.5313Z" fill="#0289C4"/>
<path d="M89.6937 24.9688H67.0375C66.4161 24.9695 65.8204 25.2166 65.381 25.656C64.9416 26.0954 64.6944 26.6911 64.6937 27.3125V28.4569L60.3541 31.35C60.2471 31.4213 60.1594 31.518 60.0987 31.6314C60.038 31.7448 60.0062 31.8714 60.0062 32C60.0062 32.1286 60.038 32.2552 60.0987 32.3686C60.1594 32.482 60.2471 32.5787 60.3541 32.65L64.6937 35.5431V36.6875C64.6944 37.3089 64.9416 37.9046 65.381 38.344C65.8204 38.7834 66.4161 39.0305 67.0375 39.0312H89.6937C90.3151 39.0305 90.9108 38.7834 91.3502 38.344C91.7896 37.9046 92.0368 37.3089 92.0375 36.6875V27.3125C92.0368 26.6911 91.7896 26.0954 91.3502 25.656C90.9108 25.2166 90.3151 24.9695 89.6937 24.9688ZM90.475 36.6875C90.4747 36.8946 90.3924 37.0932 90.2459 37.2397C90.0994 37.3861 89.9009 37.4685 89.6937 37.4688H67.0375C66.8303 37.4685 66.6318 37.3861 66.4853 37.2397C66.3388 37.0932 66.2565 36.8946 66.2562 36.6875V32H64.6937V33.6652L62.1959 32L65.9083 29.525C66.0153 29.4537 66.1031 29.357 66.1638 29.2436C66.2245 29.1302 66.2562 29.0036 66.2562 28.875V27.3125C66.2565 27.1054 66.3388 26.9068 66.4853 26.7603C66.6318 26.6139 66.8303 26.5315 67.0375 26.5312H89.6937C89.9009 26.5315 90.0994 26.6139 90.2459 26.7603C90.3924 26.9068 90.4747 27.1054 90.475 27.3125V36.6875Z" fill="#0289C4"/>
<path d="M83.4437 35.9062C83.8752 35.9062 84.225 35.5565 84.225 35.125C84.225 34.6935 83.8752 34.3438 83.4437 34.3438C83.0123 34.3438 82.6625 34.6935 82.6625 35.125C82.6625 35.5565 83.0123 35.9062 83.4437 35.9062Z" fill="#0289C4"/>
<path d="M81.1 35.9062C81.5314 35.9062 81.8812 35.5565 81.8812 35.125C81.8812 34.6935 81.5314 34.3438 81.1 34.3438C80.6685 34.3438 80.3187 34.6935 80.3187 35.125C80.3187 35.5565 80.6685 35.9062 81.1 35.9062Z" fill="#0289C4"/>
<path d="M78.7562 35.9062C79.1877 35.9062 79.5375 35.5565 79.5375 35.125C79.5375 34.6935 79.1877 34.3438 78.7562 34.3438C78.3248 34.3438 77.975 34.6935 77.975 35.125C77.975 35.5565 78.3248 35.9062 78.7562 35.9062Z" fill="#0289C4"/>
<path d="M85.7875 35.9062C86.2189 35.9062 86.5687 35.5565 86.5687 35.125C86.5687 34.6935 86.2189 34.3438 85.7875 34.3438C85.356 34.3438 85.0062 34.6935 85.0062 35.125C85.0062 35.5565 85.356 35.9062 85.7875 35.9062Z" fill="#0289C4"/>
<path d="M88.1312 35.9062C88.5627 35.9062 88.9125 35.5565 88.9125 35.125C88.9125 34.6935 88.5627 34.3438 88.1312 34.3438C87.6998 34.3438 87.35 34.6935 87.35 35.125C87.35 35.5565 87.6998 35.9062 88.1312 35.9062Z" fill="#0289C4"/>
<path d="M69.3812 29.6562H73.2875V31.2188H69.3812V29.6562Z" fill="#0289C4"/>
<path d="M74.85 29.6562H83.4437V31.2188H74.85V29.6562Z" fill="#0289C4"/>
<path d="M85.0062 29.6562H87.35V31.2188H85.0062V29.6562Z" fill="#0289C4"/>
<path d="M69.3812 32.7812H75.6312V34.3438H69.3812V32.7812Z" fill="#0289C4"/>
<path d="M52.1937 54.6563C53.5844 54.6563 54.9438 54.2439 56.1001 53.4713C57.2564 52.6987 58.1576 51.6005 58.6898 50.3157C59.2219 49.031 59.3612 47.6172 59.0899 46.2533C58.8186 44.8893 58.1489 43.6365 57.1656 42.6532C56.1822 41.6698 54.9294 41.0002 53.5655 40.7289C52.2015 40.4576 50.7878 40.5968 49.503 41.129C48.2182 41.6612 47.1201 42.5624 46.3475 43.7186C45.5749 44.8749 45.1625 46.2344 45.1625 47.625C45.1646 49.4892 45.906 51.2764 47.2242 52.5945C48.5424 53.9127 50.3296 54.6542 52.1937 54.6563ZM49.8567 52.5681C49.8889 51.8925 50.0739 51.233 50.3979 50.6393C50.7219 50.0456 51.1765 49.5333 51.7273 49.1408C52.0351 49.2031 52.3523 49.2031 52.6602 49.1408C53.211 49.5333 53.6655 50.0456 53.9895 50.6393C54.3136 51.233 54.4986 51.8925 54.5307 52.5681C53.8003 52.9142 53.002 53.0938 52.1937 53.0938C51.3854 53.0938 50.5872 52.9142 49.8567 52.5681ZM52.975 46.8438C52.975 47.051 52.8927 47.2497 52.7462 47.3962C52.5996 47.5427 52.4009 47.625 52.1937 47.625C51.9865 47.625 51.7878 47.5427 51.6413 47.3962C51.4948 47.2497 51.4125 47.051 51.4125 46.8438V46.0625C51.4125 45.8553 51.4948 45.6566 51.6413 45.5101C51.7878 45.3636 51.9865 45.2813 52.1937 45.2813C52.4009 45.2813 52.5996 45.3636 52.7462 45.5101C52.8927 45.6566 52.975 45.8553 52.975 46.0625V46.8438ZM52.1937 42.1563C53.2851 42.1555 54.3517 42.4815 55.2561 43.0923C56.1606 43.7031 56.8614 44.5707 57.2684 45.5833C57.6753 46.596 57.7697 47.7073 57.5394 48.7741C57.3092 49.8409 56.7648 50.8143 55.9763 51.5689C55.7142 50.2868 55.0417 49.1248 54.0606 48.2587C54.3704 47.8521 54.5379 47.3549 54.5375 46.8438V46.0625C54.5375 45.4409 54.2905 44.8448 53.851 44.4052C53.4115 43.9657 52.8153 43.7188 52.1937 43.7188C51.5721 43.7188 50.976 43.9657 50.5364 44.4052C50.0969 44.8448 49.85 45.4409 49.85 46.0625V46.8438C49.8495 47.3549 50.0171 47.8521 50.3269 48.2587C49.3458 49.1248 48.6733 50.2868 48.4111 51.5689C47.6227 50.8143 47.0783 49.8409 46.848 48.7741C46.6177 47.7073 46.7121 46.596 47.1191 45.5833C47.526 44.5707 48.2269 43.7031 49.1313 43.0923C50.0358 42.4815 51.1024 42.1555 52.1937 42.1563Z" fill="#0289C4"/>
<path d="M89.6937 40.5938H67.0375C66.4161 40.5945 65.8204 40.8416 65.381 41.281C64.9416 41.7204 64.6944 42.3161 64.6937 42.9375V44.0819L60.3541 46.975C60.2471 47.0463 60.1594 47.143 60.0987 47.2564C60.038 47.3698 60.0062 47.4964 60.0062 47.625C60.0062 47.7536 60.038 47.8802 60.0987 47.9936C60.1594 48.107 60.2471 48.2037 60.3541 48.275L64.6937 51.1681V52.3125C64.6944 52.9339 64.9416 53.5296 65.381 53.969C65.8204 54.4084 66.4161 54.6555 67.0375 54.6562H89.6937C90.3151 54.6555 90.9108 54.4084 91.3502 53.969C91.7896 53.5296 92.0368 52.9339 92.0375 52.3125V42.9375C92.0368 42.3161 91.7896 41.7204 91.3502 41.281C90.9108 40.8416 90.3151 40.5945 89.6937 40.5938ZM90.475 52.3125C90.4747 52.5196 90.3924 52.7182 90.2459 52.8647C90.0994 53.0111 89.9009 53.0935 89.6937 53.0938H67.0375C66.8303 53.0935 66.6318 53.0111 66.4853 52.8647C66.3388 52.7182 66.2565 52.5196 66.2562 52.3125V47.625H64.6937V49.2902L62.1959 47.625L65.9083 45.15C66.0153 45.0787 66.1031 44.982 66.1638 44.8686C66.2245 44.7552 66.2562 44.6286 66.2562 44.5V42.9375C66.2565 42.7304 66.3388 42.5318 66.4853 42.3853C66.6318 42.2389 66.8303 42.1565 67.0375 42.1562H89.6937C89.9009 42.1565 90.0994 42.2389 90.2459 42.3853C90.3924 42.5318 90.4747 42.7304 90.475 42.9375V52.3125Z" fill="#0289C4"/>
<path d="M83.4437 51.5312C83.8752 51.5312 84.225 51.1815 84.225 50.75C84.225 50.3185 83.8752 49.9688 83.4437 49.9688C83.0123 49.9688 82.6625 50.3185 82.6625 50.75C82.6625 51.1815 83.0123 51.5312 83.4437 51.5312Z" fill="#0289C4"/>
<path d="M85.7875 51.5312C86.2189 51.5312 86.5687 51.1815 86.5687 50.75C86.5687 50.3185 86.2189 49.9688 85.7875 49.9688C85.356 49.9688 85.0062 50.3185 85.0062 50.75C85.0062 51.1815 85.356 51.5312 85.7875 51.5312Z" fill="#0289C4"/>
<path d="M88.1312 51.5312C88.5627 51.5312 88.9125 51.1815 88.9125 50.75C88.9125 50.3185 88.5627 49.9688 88.1312 49.9688C87.6998 49.9688 87.35 50.3185 87.35 50.75C87.35 51.1815 87.6998 51.5312 88.1312 51.5312Z" fill="#0289C4"/>
<path d="M69.3812 45.2812H74.85V46.8438H69.3812V45.2812Z" fill="#0289C4"/>
<path d="M76.4125 45.2812H79.5375V46.8438H76.4125V45.2812Z" fill="#0289C4"/>
<path d="M81.1 45.2812H87.35V46.8438H81.1V45.2812Z" fill="#0289C4"/>
<path d="M69.3812 48.4062H71.725V49.9688H69.3812V48.4062Z" fill="#0289C4"/>
<path d="M73.2875 48.4062H77.1937V49.9688H73.2875V48.4062Z" fill="#0289C4"/>
<path d="M131.016 48.0444C128.511 49.7969 128.114 51.7055 128.044 52.2433L126.939 52.868C127.474 51.9831 127.975 51.0808 128.425 50.1612C129.194 48.5883 129.858 46.9652 130.411 45.303C130.48 45.1121 130.549 44.9386 130.601 44.7478C131.023 43.3852 131.665 42.1015 132.501 40.9479L132.674 40.705C139.688 36.8531 136.457 28.9932 136.457 28.9932C136.561 30.7283 134.903 32.047 133.192 35.2222C131.724 37.9115 132.208 39.8028 132.398 40.306C132.035 40.8612 131.707 41.347 131.413 41.7461C131.517 41.2429 131.638 40.7397 131.724 40.2365C132.054 38.519 132.256 36.7791 132.329 35.0313L132.363 34.3893C132.363 34.1638 132.38 33.9382 132.38 33.73V32.4287C132.363 31.9775 132.329 31.5438 132.311 31.11C132.294 30.6762 132.294 30.6762 132.277 30.468L132.225 29.8087C132.188 29.3796 132.211 28.9473 132.294 28.5247L132.795 26.0436C137.908 19.8667 132.035 13.7418 132.035 13.7418C132.778 15.3207 131.707 17.1599 131.275 20.7342C130.895 23.7879 132.035 25.3669 132.398 25.7659C132.242 26.4947 132.104 27.1193 131.966 27.6225L131.914 27.2234C131.862 26.7896 131.759 26.3732 131.689 25.9395L131.551 25.2975C131.522 25.0859 131.475 24.8771 131.413 24.6728C131.206 23.8227 131.016 22.9725 130.757 22.157L130.567 21.5323L130.48 21.22L130.359 20.9077L129.927 19.6758C129.651 18.9644 129.357 18.2704 129.046 17.559C128.485 16.3113 128.157 14.9702 128.079 13.603C128.062 13.2907 128.044 12.9784 128.01 12.6661C130.757 5.13579 123.19 1.33596 123.19 1.33596C124.4 2.58522 124.019 4.68467 124.797 8.18954C125.471 11.1912 127.077 12.2843 127.526 12.5446C127.682 13.5683 127.768 14.4358 127.803 15.0258L127.768 14.9737L127.457 14.4011L127.129 13.8286L126.455 12.7181L125.747 11.6424L125.384 11.1218L124.987 10.6013C124.584 10.0461 124.169 9.50821 123.743 8.98768C123.138 8.20689 122.309 7.09644 121.584 6.2983C121.241 5.91998 120.956 5.49323 120.737 5.03169C117.576 -1.63103 109.889 0.242856 109.889 0.242856C111.616 0.346961 112.722 2.18615 115.624 4.2856C117.939 5.95128 119.753 5.84718 120.426 5.72572L120.685 5.81248L121.566 6.74942C122.727 8.0108 123.8 9.3499 124.78 10.7575L125.142 11.278L125.488 11.8159L126.179 12.909L126.472 13.4121C125.745 12.7899 124.977 12.2161 124.175 11.6944C120.029 4.84083 112.342 8.4151 112.342 8.4151C114.069 8.22424 115.468 9.83787 118.682 11.4168C121.428 12.7702 123.294 12.1976 123.778 11.9894C124.883 12.6314 125.799 13.2733 126.334 13.6551C126.665 13.897 126.937 14.2115 127.129 14.5747L127.423 15.1472C128.2 16.6711 128.87 18.2481 129.426 19.8667L129.824 21.0812L129.927 21.3935L130.014 21.6885L130.187 22.3131C130.428 23.1286 130.584 23.9788 130.774 24.8116C130.826 25.0199 130.86 25.2281 130.895 25.4363C130.408 24.6686 129.865 23.9379 129.271 23.2501C127.302 15.4769 118.923 16.6394 118.923 16.6394C120.634 16.9691 121.48 18.9297 124.106 21.3762C126.352 23.4756 128.286 23.4756 128.822 23.4236C129.426 24.0829 129.91 24.6728 130.273 25.124C130.793 25.7421 131.112 26.5048 131.188 27.3102L131.327 28.5768L131.378 28.9064V29.2188L131.413 29.8607L131.465 30.5027C131.465 30.7109 131.465 30.9191 131.482 31.1274C131.499 31.3356 131.499 31.9775 131.499 32.4113L131.465 33.6953C131.465 33.9035 131.448 34.1117 131.43 34.3199L131.396 34.9619C131.327 35.8815 131.223 36.8011 131.085 37.7033C130.921 36.9685 130.713 36.2442 130.463 35.5345C131.396 27.5531 123.138 25.6445 123.138 25.6445C124.607 26.5641 124.728 28.6982 126.3 31.9255C127.664 34.7016 129.478 35.3957 129.997 35.5345C130.187 36.0376 130.359 36.4888 130.497 36.9052C130.851 37.9014 130.923 38.9764 130.705 40.011H130.688C130.34 41.6665 129.879 43.2957 129.306 44.8866C128.716 46.4777 128.03 48.0306 127.25 49.5366C127.025 49.9704 126.783 50.4041 126.542 50.8206C126.67 49.9582 126.751 49.0893 126.783 48.2179C130.567 41.1214 123.588 36.3153 123.588 36.3153C124.624 37.7033 123.95 39.7334 124.227 43.325C124.469 46.3787 125.92 47.6974 126.334 48.0271V48.3567C126.334 50.3087 125.731 52.2124 124.607 53.8049H124.59C123.615 55.1787 122.547 56.4831 121.394 57.7088C121.1 58.0038 120.824 58.3161 120.513 58.6111L119.597 59.4786C119.58 59.4786 119.597 59.4786 119.58 59.4613C119.856 58.9755 120.098 58.4723 120.323 58.0038C126.542 52.9374 121.964 45.7888 121.964 45.7888C122.378 47.4719 120.979 49.0855 119.856 52.5036C118.906 55.4185 119.718 57.1883 119.977 57.6394C119.804 58.0906 119.632 58.4896 119.459 58.854C119.064 59.7392 118.459 60.5137 117.697 61.1096C116.389 62.1654 115.01 63.1279 113.568 63.9898C112.739 64.4757 111.875 64.9441 111.012 65.3779C111.374 65.0135 111.703 64.6318 112.014 64.2501C117.956 61.4913 115.779 54.8807 115.779 54.8807C115.762 56.3208 114.328 57.3098 112.739 59.791C111.409 61.9078 111.703 63.4867 111.806 63.9031C111.616 64.1634 111.443 64.4063 111.271 64.6145C110.703 65.3332 109.967 65.8995 109.129 66.2628H109.111C107.571 66.9153 105.99 67.466 104.378 67.9111H104.361C104.149 67.9727 103.961 68.0996 103.825 68.274C103.689 68.4483 103.61 68.6613 103.601 68.8828C103.594 69.0527 103.628 69.2217 103.699 69.376C103.77 69.5303 103.877 69.6655 104.01 69.7705C104.143 69.8755 104.299 69.9473 104.465 69.9799C104.631 70.0126 104.803 70.0053 104.965 69.9585C106.649 69.4626 108.299 68.8599 109.906 68.1541C111.504 67.4223 113.051 66.5817 114.536 65.6382C115.434 65.083 116.298 64.4583 117.144 63.8163C118.288 62.9486 119.654 62.4251 121.083 62.3068C128.545 65.1871 132.432 57.6394 132.432 57.6394C131.188 58.8367 129.098 58.4202 125.591 59.149C122.603 59.7736 121.48 61.3699 121.221 61.8383C120.495 61.9251 119.856 61.9945 119.338 62.0292L120.737 60.7452L121.653 59.8083C121.964 59.496 122.257 59.149 122.551 58.8367C123.719 57.5286 124.798 56.1432 125.781 54.6898L125.851 54.6031C126.326 53.8905 126.974 53.3113 127.734 52.92L128.114 52.7292H128.096C136.094 52.4342 136.716 43.9496 136.716 43.9496C136.043 45.5459 133.952 45.9797 131.016 48.0444Z" fill="#D8463F"/>
</svg>
