<svg width="138" height="70" viewBox="0 0 138 70" fill="none" xmlns="http://www.w3.org/2000/svg">
<path d="M6.18422 48.0444C8.68906 49.7969 9.08638 51.7055 9.15548 52.2433L10.2611 52.868C9.72554 51.9831 9.22457 51.0808 8.77543 50.1612C8.00574 48.5883 7.34205 46.9652 6.78884 45.303C6.71974 45.1121 6.65064 44.9386 6.59882 44.7478C6.17683 43.3852 5.53488 42.1015 4.6986 40.9479L4.52585 40.705C-2.48768 36.8531 0.742688 28.9932 0.742688 28.9932C0.63904 30.7283 2.29741 32.047 4.00761 35.2222C5.47596 37.9115 4.99227 39.8028 4.80225 40.306C5.16502 40.8612 5.49324 41.347 5.78691 41.7461C5.68326 41.2429 5.56233 40.7397 5.47596 40.2365C5.14588 38.519 4.94379 36.7791 4.87135 35.0313L4.8368 34.3893C4.8368 34.1638 4.81952 33.9382 4.81952 33.73V32.4287C4.8368 31.9775 4.87135 31.5438 4.88862 31.11C4.90589 30.6762 4.90589 30.6762 4.92317 30.468L4.97499 29.8087C5.01241 29.3796 4.98915 28.9473 4.90589 28.5247L4.40493 26.0436C-0.708388 19.8667 5.16502 13.7418 5.16502 13.7418C4.4222 15.3207 5.49324 17.1599 5.9251 20.7342C6.30515 23.7879 5.16502 25.3669 4.80225 25.7659C4.95772 26.4947 5.09592 27.1193 5.23411 27.6225L5.28594 27.2234C5.33776 26.7896 5.44141 26.3732 5.51051 25.9395L5.64871 25.2975C5.67827 25.0859 5.72448 24.8771 5.78691 24.6728C5.9942 23.8227 6.18422 22.9725 6.44334 22.157L6.63337 21.5323L6.71974 21.22L6.84066 20.9077L7.27253 19.6758C7.54893 18.9644 7.8426 18.2704 8.15354 17.559C8.71536 16.3113 9.0433 14.9702 9.12093 13.603C9.1382 13.2907 9.15548 12.9784 9.19002 12.6661C6.44335 5.13579 14.0097 1.33596 14.0097 1.33596C12.8004 2.58522 13.1805 4.68467 12.4031 8.18954C11.7294 11.1912 10.1229 12.2843 9.67372 12.5446C9.51824 13.5683 9.43187 14.4358 9.39732 15.0258L9.43187 14.9737L9.74282 14.4011L10.071 13.8286L10.7447 12.7181L11.453 11.6424L11.8158 11.1218L12.2131 10.6013C12.6162 10.0461 13.0308 9.50821 13.4569 8.98768C14.0615 8.20689 14.8907 7.09644 15.6162 6.2983C15.9586 5.91998 16.2438 5.49323 16.4627 5.03169C19.624 -1.63103 27.3112 0.242856 27.3112 0.242856C25.5837 0.346961 24.4781 2.18615 21.576 4.2856C19.2612 5.95128 17.4473 5.84718 16.7736 5.72572L16.5145 5.81248L15.6335 6.74942C14.4733 8.0108 13.3998 9.3499 12.4204 10.7575L12.0576 11.278L11.7121 11.8159L11.0211 12.909L10.7275 13.4121C11.4553 12.7899 12.2227 12.2161 13.025 11.6944C17.1709 4.84083 24.8582 8.4151 24.8582 8.4151C23.1307 8.22424 21.7315 9.83787 18.5184 11.4168C15.7717 12.7702 13.906 12.1976 13.4223 11.9894C12.3167 12.6314 11.4012 13.2733 10.8657 13.6551C10.5347 13.897 10.2629 14.2115 10.071 14.5747L9.77736 15.1472C8.99967 16.6711 8.33005 18.2481 7.7735 19.8667L7.37618 21.0812L7.27253 21.3935L7.18616 21.6885L7.01341 22.3131C6.77156 23.1286 6.61609 23.9788 6.42607 24.8116C6.37425 25.0199 6.3397 25.2281 6.30515 25.4363C6.79242 24.6686 7.33516 23.9379 7.92897 23.2501C9.89829 15.4769 18.2765 16.6394 18.2765 16.6394C16.5663 16.9691 15.7199 18.9297 13.0941 21.3762C10.8484 23.4756 8.91363 23.4756 8.37811 23.4236C7.7735 24.0829 7.28981 24.6728 6.92704 25.124C6.40738 25.7421 6.08795 26.5048 6.01148 27.3102L5.87328 28.5768L5.82146 28.9064V29.2188L5.78691 29.8607L5.73508 30.5027C5.73508 30.7109 5.73508 30.9191 5.71781 31.1274C5.70053 31.3356 5.70053 31.9775 5.70053 32.4113L5.73508 33.6953C5.73508 33.9035 5.75236 34.1117 5.76963 34.3199L5.80418 34.9619C5.87328 35.8815 5.97693 36.8011 6.11513 37.7033C6.27881 36.9685 6.48648 36.2442 6.73701 35.5345C5.80418 27.5531 14.0615 25.6445 14.0615 25.6445C12.5931 26.5641 12.4722 28.6982 10.9002 31.9255C9.53552 34.7016 7.72167 35.3957 7.20343 35.5345C7.01341 36.0376 6.84066 36.4888 6.70247 36.9052C6.34914 37.9014 6.27739 38.9764 6.49517 40.011H6.51244C6.85958 41.6665 7.32136 43.2957 7.89442 44.8866C8.4836 46.4777 9.17014 48.0306 9.95011 49.5366C10.1747 49.9704 10.4165 50.4041 10.6584 50.8206C10.5296 49.9582 10.4489 49.0893 10.4165 48.2179C6.63337 41.1214 13.6124 36.3153 13.6124 36.3153C12.5759 37.7033 13.2496 39.7334 12.9732 43.325C12.7313 46.3787 11.2803 47.6974 10.8657 48.0271V48.3567C10.8657 50.3087 11.4693 52.2124 12.5931 53.8049H12.6104C13.5848 55.1787 14.6526 56.4831 15.8062 57.7088C16.0999 58.0038 16.3763 58.3161 16.6873 58.6111L17.6028 59.4786C17.6201 59.4786 17.6028 59.4786 17.6201 59.4613C17.3437 58.9755 17.1018 58.4723 16.8773 58.0038C10.6584 52.9374 15.2362 45.7888 15.2362 45.7888C14.8216 47.4719 16.2208 49.0855 17.3437 52.5036C18.2938 55.4185 17.4819 57.1883 17.2228 57.6394C17.3955 58.0906 17.5683 58.4896 17.741 58.854C18.136 59.7392 18.741 60.5137 19.503 61.1096C20.8105 62.1654 22.1902 63.1279 23.6317 63.9898C24.4609 64.4757 25.3246 64.9441 26.1883 65.3779C25.8256 65.0135 25.4974 64.6318 25.1864 64.2501C19.2439 61.4913 21.4205 54.8807 21.4205 54.8807C21.4378 56.3208 22.8716 57.3098 24.4609 59.791C25.791 61.9078 25.4974 63.4867 25.3937 63.9031C25.5837 64.1634 25.7565 64.4063 25.9292 64.6145C26.4967 65.3332 27.2327 65.8995 28.0713 66.2628H28.0886C29.6289 66.9153 31.21 67.466 32.8218 67.9111H32.8391C33.0512 67.9727 33.2386 68.0996 33.375 68.274C33.5114 68.4483 33.5898 68.6613 33.5992 68.8828C33.6057 69.0527 33.5721 69.2217 33.501 69.376C33.4299 69.5303 33.3234 69.6655 33.1902 69.7705C33.057 69.8755 32.901 69.9473 32.7349 69.9799C32.5687 70.0126 32.3973 70.0053 32.2345 69.9585C30.5513 69.4626 28.9011 68.8599 27.2939 68.1541C25.6955 67.4223 24.1487 66.5817 22.6643 65.6382C21.766 65.083 20.9023 64.4583 20.0558 63.8163C18.9118 62.9486 17.5459 62.4251 16.1172 62.3068C8.65451 65.1871 4.7677 57.6394 4.7677 57.6394C6.01148 58.8367 8.10172 58.4202 11.6085 59.149C14.597 59.7736 15.7199 61.3699 15.979 61.8383C16.7045 61.9251 17.3437 61.9945 17.8619 62.0292L16.4627 60.7452L15.5471 59.8083C15.2362 59.496 14.9425 59.149 14.6488 58.8367C13.4808 57.5286 12.4016 56.1432 11.4185 54.6898L11.3494 54.6031C10.8742 53.8905 10.2262 53.3113 9.46642 52.92L9.08638 52.7292H9.10365C1.10546 52.4342 0.483567 43.9496 0.483567 43.9496C1.15728 45.5459 3.24752 45.9797 6.18422 48.0444Z" fill="#D8463F"/>
<path d="M56.8812 22.625V21.0625H49.85C49.6428 21.0625 49.4441 21.1448 49.2975 21.2913C49.151 21.4378 49.0687 21.6365 49.0687 21.8438V40.5938C49.0687 40.801 49.151 40.9997 49.2975 41.1462C49.4441 41.2927 49.6428 41.375 49.85 41.375H56.1V39.8125H50.6312V22.625H56.8812Z" fill="#0289C4"/>
<path d="M85.0062 39.8125V41.375H87.35C87.5572 41.375 87.7559 41.2927 87.9024 41.1462C88.0489 40.9997 88.1312 40.801 88.1312 40.5938V21.8438C88.1312 21.6365 88.0489 21.4378 87.9024 21.2913C87.7559 21.1448 87.5572 21.0625 87.35 21.0625H81.1V22.625H86.5687V39.8125H85.0062Z" fill="#0289C4"/>
<path d="M87.35 10.9062H88.9125V12.4688H87.35V10.9062Z" fill="#0289C4"/>
<path d="M54.5375 10.9062H56.1V12.4688H54.5375V10.9062Z" fill="#0289C4"/>
<path d="M48.2875 10.9062H49.85V12.4688H48.2875V10.9062Z" fill="#0289C4"/>
<path d="M51.4125 10.9062H52.975V12.4688H51.4125V10.9062Z" fill="#0289C4"/>
<path d="M91.0002 48.8575L80.8244 38.5771C82.3301 36.1229 83.0475 33.2663 82.8801 30.3919L81.3202 30.4833C81.5082 33.7212 80.4274 36.9049 78.3071 39.3591C76.1868 41.8133 73.1938 43.3449 69.963 43.6291C66.7321 43.9132 63.5177 42.9275 61.0016 40.881C58.4855 38.8345 56.8656 35.8883 56.4856 32.6674C56.1057 29.4464 56.9955 26.2041 58.9663 23.6283C60.9371 21.0525 63.8339 19.3459 67.0421 18.8704C70.2504 18.3949 73.5177 19.188 76.1509 21.0814C78.7841 22.9748 80.5761 25.8196 81.1467 29.0123L82.6847 28.7379C82.1613 25.84 80.7404 23.1799 78.6229 21.1335C76.5053 19.0872 73.7981 17.7581 70.884 17.3341C67.9699 16.9101 64.9962 17.4127 62.3833 18.7708C59.7704 20.129 57.6504 22.2739 56.323 24.9025C54.9955 27.5312 54.5278 30.5105 54.9858 33.4194C55.4438 36.3284 56.8045 39.0198 58.8755 41.1133C60.9465 43.2068 63.6231 44.5965 66.5269 45.0859C69.4308 45.5754 72.415 45.1398 75.0578 43.8409L82.5195 51.3026L83.6244 50.1977L76.4668 43.0401C77.3034 42.4975 78.0805 41.8681 78.7851 41.1625C79.1884 40.7593 79.5667 40.3319 79.9179 39.8826L89.8897 49.9567C90.2928 50.3683 90.5278 50.9155 90.5488 51.4912C90.5698 52.0669 90.3752 52.6298 90.0032 53.0697C89.7971 53.3107 89.5433 53.5066 89.2579 53.6449C88.9724 53.7832 88.6615 53.861 88.3445 53.8733C88.0276 53.8857 87.7115 53.8324 87.4162 53.7167C87.1208 53.6011 86.8526 53.4256 86.6283 53.2013L84.7774 51.3503L83.6725 52.4552L85.5238 54.3063C86.2492 55.0298 87.2317 55.4366 88.2562 55.4376C88.3058 55.4376 88.3557 55.4367 88.4054 55.4347C89.1544 55.4055 89.8786 55.159 90.4899 54.7254C91.1011 54.2917 91.5731 53.6896 91.8481 52.9924C92.1231 52.2952 92.1894 51.5331 92.0389 50.7989C91.8883 50.0647 91.5274 49.3901 91.0002 48.8575Z" fill="#0289C4"/>
<path d="M68.8418 20.2813C66.3113 20.2815 63.8592 21.159 61.9033 22.7645C59.9473 24.3699 58.6086 26.6039 58.1151 29.0857C57.6216 31.5676 58.0039 34.1437 59.1969 36.3753C60.3898 38.6069 62.3197 40.3558 64.6576 41.324C66.9954 42.2922 69.5967 42.4198 72.0181 41.6851C74.4396 40.9504 76.5314 39.3989 77.9371 37.2948C79.3428 35.1908 79.9755 32.6644 79.7273 30.1461C79.4791 27.6279 78.3655 25.2736 76.5761 23.4844C75.5628 22.4656 74.3574 21.6579 73.0298 21.1081C71.7022 20.5583 70.2787 20.2773 68.8418 20.2813ZM75.4708 37.8479C73.9372 39.3816 71.9191 40.336 69.7606 40.5486C67.6021 40.7612 65.4367 40.2188 63.6333 39.0137C61.8298 37.8087 60.5 36.0157 59.8704 33.9401C59.2408 31.8646 59.3504 29.6349 60.1804 27.631C61.0104 25.6272 62.5096 23.9731 64.4224 22.9507C66.3353 21.9283 68.5435 21.6007 70.6708 22.0239C72.798 22.447 74.7128 23.5947 76.0887 25.2713C77.4647 26.948 78.2168 29.0498 78.2167 31.2188C78.2201 32.4504 77.9792 33.6705 77.5078 34.8084C77.0365 35.9463 76.3441 36.9794 75.4708 37.8479Z" fill="#0289C4"/>
<path d="M74.2013 28.8344L70.9055 28.3559L69.4315 25.3691C69.367 25.2384 69.2672 25.1283 69.1434 25.0513C69.0196 24.9744 68.8767 24.9336 68.731 24.9336C68.5852 24.9336 68.4423 24.9744 68.3185 25.0513C68.1947 25.1283 68.0949 25.2384 68.0304 25.3691L66.5565 28.3555L63.2607 28.834C63.1165 28.855 62.981 28.9159 62.8695 29.0099C62.7581 29.1038 62.6752 29.2271 62.6301 29.3657C62.5851 29.5044 62.5797 29.6528 62.6146 29.7944C62.6495 29.9359 62.7234 30.0648 62.8277 30.1666L65.2126 32.4913L64.6496 35.7738C64.625 35.9175 64.641 36.0652 64.696 36.2002C64.7509 36.3352 64.8425 36.4522 64.9604 36.5379C65.0784 36.6236 65.2179 36.6746 65.3633 36.6851C65.5087 36.6956 65.6542 36.6652 65.7832 36.5973L68.731 35.0475L71.6788 36.5973C71.8078 36.6652 71.9533 36.6956 72.0987 36.6851C72.2441 36.6746 72.3836 36.6236 72.5016 36.5379C72.6195 36.4522 72.7111 36.3352 72.7661 36.2002C72.821 36.0652 72.837 35.9175 72.8124 35.7738L72.2494 32.4913L74.6343 30.1666C74.7386 30.0648 74.8125 29.9359 74.8474 29.7944C74.8823 29.6528 74.877 29.5044 74.8319 29.3657C74.7869 29.2271 74.7039 29.1038 74.5925 29.0099C74.481 28.9159 74.3455 28.855 74.2013 28.834V28.8344ZM70.8646 31.6595C70.774 31.7479 70.7061 31.8571 70.667 31.9775C70.6279 32.098 70.6186 32.2261 70.64 32.3509L71.0048 34.4781L69.0945 33.4738C68.9824 33.4149 68.8577 33.3841 68.731 33.3841C68.6043 33.3841 68.4796 33.4149 68.3675 33.4738L66.4572 34.4781L66.822 32.3509C66.8434 32.2261 66.8341 32.098 66.795 31.9775C66.7559 31.8571 66.688 31.7479 66.5974 31.6595L65.052 30.1531L67.1877 29.8427C67.313 29.8245 67.4321 29.7761 67.5345 29.7017C67.637 29.6272 67.7198 29.529 67.7759 29.4154L68.731 27.48L69.6861 29.4154C69.7422 29.529 69.825 29.6272 69.9275 29.7017C70.03 29.7761 70.1491 29.8245 70.2744 29.8427L72.4101 30.1531L70.8646 31.6595Z" fill="#0289C4"/>
<path d="M49.0687 17.1562H55.3187V18.7188H49.0687V17.1562Z" fill="#0289C4"/>
<path d="M56.8812 17.1562H58.4437V18.7188H56.8812V17.1562Z" fill="#0289C4"/>
<path d="M46.725 14.8125H90.475V46.8438H92.0375V9.34375C92.0375 9.13655 91.9552 8.93784 91.8087 8.79132C91.6621 8.64481 91.4634 8.5625 91.2562 8.5625H45.9437C45.7365 8.5625 45.5378 8.64481 45.3913 8.79132C45.2448 8.93784 45.1625 9.13655 45.1625 9.34375V17.1562H46.725V14.8125ZM46.725 10.125H90.475V13.25H46.725V10.125Z" fill="#0289C4"/>
<path d="M46.725 18.7188H45.1625V48.4062C45.1625 48.6135 45.2448 48.8122 45.3913 48.9587C45.5378 49.1052 45.7365 49.1875 45.9437 49.1875H77.1937V47.625H46.725V18.7188Z" fill="#0289C4"/>
<path d="M131.016 48.0444C128.511 49.7969 128.114 51.7055 128.044 52.2433L126.939 52.868C127.474 51.9831 127.975 51.0808 128.425 50.1612C129.194 48.5883 129.858 46.9652 130.411 45.303C130.48 45.1121 130.549 44.9386 130.601 44.7478C131.023 43.3852 131.665 42.1015 132.501 40.9479L132.674 40.705C139.688 36.8531 136.457 28.9932 136.457 28.9932C136.561 30.7283 134.903 32.047 133.192 35.2222C131.724 37.9115 132.208 39.8028 132.398 40.306C132.035 40.8612 131.707 41.347 131.413 41.7461C131.517 41.2429 131.638 40.7397 131.724 40.2365C132.054 38.519 132.256 36.7791 132.329 35.0313L132.363 34.3893C132.363 34.1638 132.38 33.9382 132.38 33.73V32.4287C132.363 31.9775 132.329 31.5438 132.311 31.11C132.294 30.6762 132.294 30.6762 132.277 30.468L132.225 29.8087C132.188 29.3796 132.211 28.9473 132.294 28.5247L132.795 26.0436C137.908 19.8667 132.035 13.7418 132.035 13.7418C132.778 15.3207 131.707 17.1599 131.275 20.7342C130.895 23.7879 132.035 25.3669 132.398 25.7659C132.242 26.4947 132.104 27.1193 131.966 27.6225L131.914 27.2234C131.862 26.7896 131.759 26.3732 131.689 25.9395L131.551 25.2975C131.522 25.0859 131.475 24.8771 131.413 24.6728C131.206 23.8227 131.016 22.9725 130.757 22.157L130.567 21.5323L130.48 21.22L130.359 20.9077L129.927 19.6758C129.651 18.9644 129.357 18.2704 129.046 17.559C128.485 16.3113 128.157 14.9702 128.079 13.603C128.062 13.2907 128.044 12.9784 128.01 12.6661C130.757 5.13579 123.19 1.33596 123.19 1.33596C124.4 2.58522 124.019 4.68467 124.797 8.18954C125.471 11.1912 127.077 12.2843 127.526 12.5446C127.682 13.5683 127.768 14.4358 127.803 15.0258L127.768 14.9737L127.457 14.4011L127.129 13.8286L126.455 12.7181L125.747 11.6424L125.384 11.1218L124.987 10.6013C124.584 10.0461 124.169 9.50821 123.743 8.98768C123.138 8.20689 122.309 7.09644 121.584 6.2983C121.241 5.91998 120.956 5.49323 120.737 5.03169C117.576 -1.63103 109.889 0.242856 109.889 0.242856C111.616 0.346961 112.722 2.18615 115.624 4.2856C117.939 5.95128 119.753 5.84718 120.426 5.72572L120.685 5.81248L121.566 6.74942C122.727 8.0108 123.8 9.3499 124.78 10.7575L125.142 11.278L125.488 11.8159L126.179 12.909L126.472 13.4121C125.745 12.7899 124.977 12.2161 124.175 11.6944C120.029 4.84083 112.342 8.4151 112.342 8.4151C114.069 8.22424 115.468 9.83787 118.682 11.4168C121.428 12.7702 123.294 12.1976 123.778 11.9894C124.883 12.6314 125.799 13.2733 126.334 13.6551C126.665 13.897 126.937 14.2115 127.129 14.5747L127.423 15.1472C128.2 16.6711 128.87 18.2481 129.426 19.8667L129.824 21.0812L129.927 21.3935L130.014 21.6885L130.187 22.3131C130.428 23.1286 130.584 23.9788 130.774 24.8116C130.826 25.0199 130.86 25.2281 130.895 25.4363C130.408 24.6686 129.865 23.9379 129.271 23.2501C127.302 15.4769 118.923 16.6394 118.923 16.6394C120.634 16.9691 121.48 18.9297 124.106 21.3762C126.352 23.4756 128.286 23.4756 128.822 23.4236C129.426 24.0829 129.91 24.6728 130.273 25.124C130.793 25.7421 131.112 26.5048 131.188 27.3102L131.327 28.5768L131.378 28.9064V29.2188L131.413 29.8607L131.465 30.5027C131.465 30.7109 131.465 30.9191 131.482 31.1274C131.499 31.3356 131.499 31.9775 131.499 32.4113L131.465 33.6953C131.465 33.9035 131.448 34.1117 131.43 34.3199L131.396 34.9619C131.327 35.8815 131.223 36.8011 131.085 37.7033C130.921 36.9685 130.713 36.2442 130.463 35.5345C131.396 27.5531 123.138 25.6445 123.138 25.6445C124.607 26.5641 124.728 28.6982 126.3 31.9255C127.664 34.7016 129.478 35.3957 129.997 35.5345C130.187 36.0376 130.359 36.4888 130.497 36.9052C130.851 37.9014 130.923 38.9764 130.705 40.011H130.688C130.34 41.6665 129.879 43.2957 129.306 44.8866C128.716 46.4777 128.03 48.0306 127.25 49.5366C127.025 49.9704 126.783 50.4041 126.542 50.8206C126.67 49.9582 126.751 49.0893 126.783 48.2179C130.567 41.1214 123.588 36.3153 123.588 36.3153C124.624 37.7033 123.95 39.7334 124.227 43.325C124.469 46.3787 125.92 47.6974 126.334 48.0271V48.3567C126.334 50.3087 125.731 52.2124 124.607 53.8049H124.59C123.615 55.1787 122.547 56.4831 121.394 57.7088C121.1 58.0038 120.824 58.3161 120.513 58.6111L119.597 59.4786C119.58 59.4786 119.597 59.4786 119.58 59.4613C119.856 58.9755 120.098 58.4723 120.323 58.0038C126.542 52.9374 121.964 45.7888 121.964 45.7888C122.378 47.4719 120.979 49.0855 119.856 52.5036C118.906 55.4185 119.718 57.1883 119.977 57.6394C119.804 58.0906 119.632 58.4896 119.459 58.854C119.064 59.7392 118.459 60.5137 117.697 61.1096C116.389 62.1654 115.01 63.1279 113.568 63.9898C112.739 64.4757 111.875 64.9441 111.012 65.3779C111.374 65.0135 111.703 64.6318 112.014 64.2501C117.956 61.4913 115.779 54.8807 115.779 54.8807C115.762 56.3208 114.328 57.3098 112.739 59.791C111.409 61.9078 111.703 63.4867 111.806 63.9031C111.616 64.1634 111.443 64.4063 111.271 64.6145C110.703 65.3332 109.967 65.8995 109.129 66.2628H109.111C107.571 66.9153 105.99 67.466 104.378 67.9111H104.361C104.149 67.9727 103.961 68.0996 103.825 68.274C103.689 68.4483 103.61 68.6613 103.601 68.8828C103.594 69.0527 103.628 69.2217 103.699 69.376C103.77 69.5303 103.877 69.6655 104.01 69.7705C104.143 69.8755 104.299 69.9473 104.465 69.9799C104.631 70.0126 104.803 70.0053 104.965 69.9585C106.649 69.4626 108.299 68.8599 109.906 68.1541C111.504 67.4223 113.051 66.5817 114.536 65.6382C115.434 65.083 116.298 64.4583 117.144 63.8163C118.288 62.9486 119.654 62.4251 121.083 62.3068C128.545 65.1871 132.432 57.6394 132.432 57.6394C131.188 58.8367 129.098 58.4202 125.591 59.149C122.603 59.7736 121.48 61.3699 121.221 61.8383C120.495 61.9251 119.856 61.9945 119.338 62.0292L120.737 60.7452L121.653 59.8083C121.964 59.496 122.257 59.149 122.551 58.8367C123.719 57.5286 124.798 56.1432 125.781 54.6898L125.851 54.6031C126.326 53.8905 126.974 53.3113 127.734 52.92L128.114 52.7292H128.096C136.094 52.4342 136.716 43.9496 136.716 43.9496C136.043 45.5459 133.952 45.9797 131.016 48.0444Z" fill="#D8463F"/>
</svg>
