<svg width="8" height="12" viewBox="0 0 8 12" fill="none" xmlns="http://www.w3.org/2000/svg">
<path d="M0.743182 5.14724C0.804093 5.08654 0.870171 5.03532 0.939691 4.99076L5.59049 0.340179C6.04421 -0.113321 6.78031 -0.113536 7.23424 0.340394C7.68817 0.79411 7.68817 1.53 7.23424 1.98414L3.22893 5.98945L7.2549 10.0156C7.70883 10.4694 7.70883 11.205 7.2549 11.6594C7.02783 11.8867 6.73016 11.9999 6.43314 11.9999C6.13611 11.9999 5.83823 11.8867 5.61137 11.6594L0.939691 6.98728C0.870171 6.94273 0.803663 6.8915 0.743182 6.83081C0.511158 6.59878 0.399236 6.29315 0.404832 5.98902C0.399236 5.6849 0.511158 5.37948 0.743182 5.14724Z" fill="#0289C4"/>
</svg>
