<svg width="54" height="50" viewBox="0 0 54 50" fill="none" xmlns="http://www.w3.org/2000/svg">
<path d="M50.7115 21.5443H47.9886C47.8335 20.9865 47.4998 20.494 47.038 20.1413C46.5762 19.7886 46.0113 19.5948 45.4289 19.5894H42.5223V12.5272C42.5255 12.3951 42.4934 12.2645 42.4291 12.1488C42.3649 12.0331 42.2708 11.9365 42.1565 11.8688L21.6521 0.101895C21.5366 0.0351557 21.4053 0 21.2716 0C21.138 0 21.0067 0.0351557 20.8911 0.101895L0.380409 11.8688C0.264354 11.9356 0.168083 12.0317 0.101298 12.1473C0.0345134 12.2629 -0.000425181 12.3939 3.90509e-06 12.5272V36.0611C7.31721e-06 36.1946 0.0353651 36.3257 0.102524 36.4412C0.169682 36.5568 0.266275 36.6528 0.382595 36.7195L20.8954 48.4864C21.0117 48.5531 21.1437 48.5883 21.278 48.5883C21.4158 48.5883 21.5513 48.5533 21.6715 48.4864L32.4656 42.3004V46.7722C32.4645 47.198 32.5484 47.6197 32.7124 48.013C32.8765 48.4064 33.1174 48.7635 33.4213 49.0636C33.7252 49.3638 34.0859 49.6011 34.4828 49.7618C34.8796 49.9225 35.3045 50.0034 35.733 49.9999H50.7115C51.1411 50.0038 51.5672 49.9233 51.9654 49.763C52.3636 49.6027 52.7259 49.3658 53.0316 49.0658C53.3372 48.7658 53.5801 48.4087 53.7463 48.0151C53.9125 47.6215 53.9987 47.1991 54 46.7722V24.8224C53.9995 23.955 53.6532 23.1231 53.0369 22.5088C52.4206 21.8944 51.5845 21.5477 50.7115 21.5443ZM45.4561 21.1099C45.7507 21.1099 46.0332 21.2262 46.2415 21.4331C46.4498 21.6401 46.5668 21.9208 46.5668 22.2135V22.2871C46.5668 22.5798 46.4498 22.8605 46.2415 23.0675C46.0332 23.2744 45.7507 23.3907 45.4561 23.3907H41.0095C40.7149 23.3907 40.4324 23.2744 40.2241 23.0675C40.0158 22.8605 39.8988 22.5798 39.8988 22.2871V22.2135C39.8988 21.9208 40.0158 21.6401 40.2241 21.4331C40.4324 21.2262 40.7149 21.1099 41.0095 21.1099H45.4561ZM21.278 1.63817L29.8014 6.52752L10.8203 17.4158L2.29697 12.5264L21.278 1.63817ZM20.5506 46.5111L1.53037 35.6221V13.8423L20.5506 24.7313V46.5111ZM21.278 23.4146L12.3507 18.2936L31.3318 7.40541L40.2595 12.5264L21.278 23.4146ZM32.4656 24.8224V40.5447L22.081 46.5111V24.7313L40.9919 13.8423V19.5894H41.0156C40.4332 19.5948 39.8683 19.7885 39.4065 20.1412C38.9446 20.4939 38.611 20.9865 38.4559 21.5443H35.733C34.8622 21.5485 34.0288 21.8962 33.416 22.511C32.8033 23.1257 32.4614 23.9572 32.4656 24.8224ZM52.4696 46.7722C52.4686 46.9995 52.4221 47.2243 52.3329 47.4335C52.2437 47.6427 52.1135 47.8323 51.9499 47.9911C51.7863 48.1499 51.5926 48.2749 51.38 48.3587C51.1674 48.4425 50.9401 48.4835 50.7115 48.4793H35.733C35.5054 48.4831 35.2794 48.4417 35.0682 48.3575C34.8569 48.2733 34.6647 48.148 34.5029 47.989C34.3411 47.83 34.2129 47.6404 34.1258 47.4314C34.0388 47.2225 33.9946 46.9984 33.996 46.7722V24.8224C33.9936 24.5936 34.0368 24.3666 34.1229 24.1544C34.2089 23.9422 34.3363 23.7489 34.4977 23.5857C34.659 23.4224 34.8512 23.2924 35.0631 23.203C35.2751 23.1137 35.5028 23.0667 35.733 23.0649H38.4857C38.6498 23.603 38.9851 24.0738 39.4412 24.4067C39.8973 24.7396 40.4497 24.9166 41.0156 24.9112H45.4289C45.9948 24.9166 46.5472 24.7396 47.0033 24.4067C47.4594 24.0738 47.7946 23.603 47.9587 23.0649H50.7115C51.1787 23.0678 51.6258 23.2542 51.9552 23.5835C52.2846 23.9128 52.4695 24.3581 52.4696 24.8224V46.7722Z" fill="#0289C4"/>
<path d="M36.6139 32.5138H37.4148C37.6177 32.5138 37.8124 32.4337 37.9559 32.2911C38.0994 32.1485 38.18 31.9552 38.18 31.7535C38.18 31.5519 38.0994 31.3585 37.9559 31.216C37.8124 31.0734 37.6177 30.9933 37.4148 30.9933H37.3846V28.9297H39.4951C39.5432 29.0826 39.6403 29.2156 39.7717 29.3083C39.9031 29.401 40.0615 29.4484 40.2226 29.4431C40.4258 29.4436 40.6209 29.3641 40.7651 29.2219C40.9093 29.0797 40.9909 28.8865 40.9919 28.6846V28.173C40.9902 27.9702 40.908 27.7762 40.7632 27.6332C40.6184 27.4901 40.4226 27.4097 40.2184 27.4092H36.6139C36.5135 27.4097 36.4142 27.4299 36.3217 27.4685C36.2291 27.5072 36.1452 27.5637 36.0747 27.6346C36.0041 27.7055 35.9483 27.7896 35.9105 27.882C35.8727 27.9744 35.8536 28.0733 35.8543 28.173V31.7544C35.8537 31.8539 35.8729 31.9525 35.9108 32.0446C35.9487 32.1367 36.0045 32.2205 36.0751 32.2911C36.1457 32.3616 36.2297 32.4176 36.3221 32.4559C36.4146 32.4941 36.5137 32.5138 36.6139 32.5138Z" fill="#D8463F"/>
<path d="M36.6194 39.4648H40.2267C40.4297 39.4648 40.6243 39.3847 40.7678 39.2421C40.9113 39.0995 40.9919 38.9062 40.9919 38.7045V35.1204C40.9919 34.9188 40.9113 34.7254 40.7678 34.5828C40.6243 34.4403 40.4297 34.3602 40.2267 34.3602H36.6194C36.4165 34.3602 36.2219 34.4403 36.0784 34.5828C35.9349 34.7254 35.8542 34.9188 35.8542 35.1204V38.7045C35.8542 38.9062 35.9349 39.0995 36.0784 39.2421C36.2219 39.3847 36.4165 39.4648 36.6194 39.4648ZM37.3846 35.8807H39.4615V37.9443H37.3846V35.8807Z" fill="#D8463F"/>
<path d="M37.4149 44.8953H37.3847V42.8317H39.4538C39.4578 43.0316 39.5404 43.222 39.6841 43.3621C39.8277 43.5022 40.0209 43.5808 40.2221 43.581C40.4234 43.5812 40.6167 43.503 40.7607 43.3632C40.9046 43.2234 40.9876 43.0331 40.992 42.8332V42.1006C40.9912 41.8951 40.9101 41.6979 40.7658 41.5506C40.6215 41.4033 40.4252 41.3175 40.2185 41.3112H36.6139C36.4086 41.318 36.2141 41.4045 36.0721 41.552C35.9301 41.6996 35.852 41.8965 35.8543 42.1006V45.682C35.8542 45.7802 35.8739 45.8774 35.9123 45.9678C35.9507 46.0583 36.007 46.1401 36.0779 46.2086C36.1487 46.277 36.2327 46.3306 36.3247 46.3662C36.4168 46.4018 36.5151 46.4186 36.6139 46.4158H37.4149C37.6179 46.4158 37.8125 46.3357 37.956 46.1931C38.0995 46.0505 38.1801 45.8572 38.1801 45.6555C38.1801 45.4539 38.0995 45.2605 37.956 45.1179C37.8125 44.9754 37.6179 44.8953 37.4149 44.8953Z" fill="#D8463F"/>
<path d="M41.9803 28.3423L39.7394 30.5688L39.0578 29.8914C38.9867 29.8208 38.9024 29.7648 38.8095 29.7266C38.7167 29.6884 38.6172 29.6687 38.5167 29.6687C38.4162 29.6687 38.3167 29.6884 38.2238 29.7266C38.131 29.7648 38.0466 29.8208 37.9756 29.8914C37.9045 29.962 37.8482 30.0458 37.8097 30.1381C37.7713 30.2303 37.7515 30.3292 37.7515 30.429C37.7515 30.5289 37.7713 30.6278 37.8097 30.72C37.8482 30.8122 37.9045 30.8961 37.9756 30.9667L39.1985 32.1816C39.2695 32.2522 39.3539 32.3082 39.4467 32.3464C39.5396 32.3846 39.6391 32.4043 39.7396 32.4043C39.84 32.4043 39.9396 32.3846 40.0324 32.3464C40.1252 32.3082 40.2096 32.2522 40.2806 32.1816L43.0628 29.4172C43.2064 29.2747 43.287 29.0813 43.287 28.8796C43.287 28.678 43.2064 28.4846 43.0628 28.342C42.9193 28.1994 42.7247 28.1193 42.5218 28.1193C42.3188 28.1193 42.1242 28.1994 41.9807 28.342L41.9803 28.3423Z" fill="#D8463F"/>
<path d="M41.9803 42.38L39.7394 44.6065L39.0578 43.9291C38.9867 43.8585 38.9024 43.8025 38.8095 43.7643C38.7167 43.7261 38.6172 43.7064 38.5167 43.7064C38.4162 43.7064 38.3167 43.7261 38.2238 43.7643C38.131 43.8025 38.0466 43.8585 37.9756 43.9291C37.9045 43.9997 37.8482 44.0835 37.8097 44.1757C37.7713 44.268 37.7515 44.3669 37.7515 44.4667C37.7515 44.5665 37.7713 44.6654 37.8097 44.7577C37.8482 44.8499 37.9045 44.9337 37.9756 45.0043L39.1985 46.2192C39.2695 46.2898 39.3539 46.3458 39.4467 46.384C39.5396 46.4222 39.6391 46.4419 39.7396 46.4419C39.84 46.4419 39.9396 46.4222 40.0324 46.384C40.1252 46.3458 40.2096 46.2898 40.2806 46.2192L43.0628 43.4549C43.2064 43.3123 43.287 43.1189 43.287 42.9173C43.287 42.7156 43.2064 42.5223 43.0628 42.3797C42.9193 42.2371 42.7247 42.157 42.5218 42.157C42.3188 42.157 42.1242 42.2371 41.9807 42.3797L41.9803 42.38Z" fill="#D8463F"/>
<path d="M49.8305 29.2556H45.0245C44.8215 29.2556 44.6269 29.3357 44.4834 29.4782C44.3399 29.6208 44.2593 29.8142 44.2593 30.0158C44.2593 30.2175 44.3399 30.4108 44.4834 30.5534C44.6269 30.696 44.8215 30.7761 45.0245 30.7761H49.8305C50.0334 30.7761 50.228 30.696 50.3715 30.5534C50.515 30.4108 50.5956 30.2175 50.5956 30.0158C50.5956 29.8142 50.515 29.6208 50.3715 29.4782C50.228 29.3357 50.0334 29.2556 49.8305 29.2556Z" fill="#D8463F"/>
<path d="M49.8305 36.2065H45.0245C44.8215 36.2065 44.6269 36.2866 44.4834 36.4292C44.3399 36.5718 44.2593 36.7652 44.2593 36.9668C44.2593 37.1684 44.3399 37.3618 44.4834 37.5044C44.6269 37.647 44.8215 37.7271 45.0245 37.7271H49.8305C50.0334 37.7271 50.228 37.647 50.3715 37.5044C50.515 37.3618 50.5956 37.1684 50.5956 36.9668C50.5956 36.7652 50.515 36.5718 50.3715 36.4292C50.228 36.2866 50.0334 36.2065 49.8305 36.2065Z" fill="#D8463F"/>
<path d="M49.8305 43.1575H45.0245C44.8215 43.1575 44.6269 43.2376 44.4834 43.3801C44.3399 43.5227 44.2593 43.7161 44.2593 43.9177C44.2593 44.1194 44.3399 44.3127 44.4834 44.4553C44.6269 44.5979 44.8215 44.678 45.0245 44.678H49.8305C50.0334 44.678 50.228 44.5979 50.3715 44.4553C50.515 44.3127 50.5956 44.1194 50.5956 43.9177C50.5956 43.7161 50.515 43.5227 50.3715 43.3801C50.228 43.2376 50.0334 43.1575 49.8305 43.1575Z" fill="#D8463F"/>
</svg>
