<svg width="52" height="56" viewBox="0 0 52 56" fill="none" xmlns="http://www.w3.org/2000/svg">
<path d="M47.09 3.74872H43.5828V2.49452C43.5828 1.11902 42.4638 0 41.0883 0H40.7116C39.3362 0 38.2172 1.11902 38.2172 2.49452V3.74872H13.7828V2.49452C13.7828 1.11902 12.6638 0 11.2883 0H10.9116C9.53614 0 8.41712 1.11902 8.41712 2.49452V3.74872H4.91001C2.6454 3.74872 0.802979 5.59114 0.802979 7.85575V51.8984C0.802979 54.1601 2.64288 56 4.90454 56H47.0957C49.3574 56 51.1973 54.1601 51.1973 51.8984V7.85575C51.1972 5.59114 49.3548 3.74872 47.09 3.74872ZM39.8578 2.49452C39.8578 2.02366 40.2409 1.64062 40.7117 1.64062H41.0884C41.5593 1.64062 41.9423 2.02366 41.9423 2.49452V3.74872H39.8578V2.49452ZM10.0579 2.49452C10.0579 2.02366 10.4409 1.64062 10.9117 1.64062H11.2884C11.7593 1.64062 12.1423 2.02366 12.1423 2.49452V3.74872H10.058L10.0579 2.49452ZM49.5566 51.8984C49.5566 53.2555 48.4526 54.3594 47.0956 54.3594H4.90443C3.54742 54.3594 2.44349 53.2555 2.44349 51.8984V51.8933C3.13081 52.4112 3.98513 52.7188 4.91001 52.7188H38.1691C39.2661 52.7188 40.2975 52.2915 41.0732 51.5157L49.5566 43.0324V51.8984ZM40.2362 50.0326C40.3005 49.7672 40.3355 49.4903 40.3355 49.2054V43.7297C40.3355 42.6972 41.1756 41.857 42.2082 41.857H47.6838C47.9688 41.857 48.2456 41.822 48.511 41.7577L40.2362 50.0326ZM49.5566 15.4715H14.6032C14.1501 15.4715 13.7828 15.8388 13.7828 16.2918C13.7828 16.7449 14.1501 17.1122 14.6032 17.1122H49.5566V38.3438C49.5566 39.3764 48.7164 40.2165 47.6838 40.2165H42.2082C40.2709 40.2165 38.6949 41.7926 38.6949 43.7298V49.2055C38.6949 50.2381 37.8547 51.0782 36.8222 51.0782H4.91001C3.55004 51.0782 2.4436 49.9718 2.4436 48.6117V17.1122H11.3219C11.7749 17.1122 12.1422 16.7449 12.1422 16.2918C12.1422 15.8388 11.7749 15.4715 11.3219 15.4715H2.44349V7.85575C2.44349 6.49578 3.54993 5.38934 4.9099 5.38934H8.41712V7.80128C8.41712 9.17678 9.53614 10.2958 10.9116 10.2958C11.3647 10.2958 11.7319 9.92852 11.7319 9.47548C11.7319 9.02245 11.3647 8.65517 10.9116 8.65517C10.4408 8.65517 10.0577 8.27214 10.0577 7.80128V5.38934H38.2172V7.80128C38.2172 9.17678 39.3362 10.2958 40.7117 10.2958C41.1648 10.2958 41.532 9.92852 41.532 9.47548C41.532 9.02245 41.1648 8.65517 40.7117 8.65517C40.2409 8.65517 39.8578 8.27214 39.8578 7.80128V5.38934H47.0901C48.4501 5.38934 49.5566 6.49578 49.5566 7.85575V15.4715Z" fill="#0289C4"/>
<path d="M40.7676 27.5028H44.6738C45.5569 27.5028 46.2754 26.7843 46.2754 25.9012V21.995C46.2754 21.1119 45.5569 20.3934 44.6738 20.3934H40.7676C39.8845 20.3934 39.166 21.1119 39.166 21.995V25.9012C39.166 26.7843 39.8845 27.5028 40.7676 27.5028ZM40.8067 22.0341H44.6348V25.8622H40.8067V22.0341ZM40.7676 37.8934H44.6738C45.5569 37.8934 46.2754 37.1749 46.2754 36.2919V32.3856C46.2754 31.5025 45.5569 30.7841 44.6738 30.7841H40.7676C39.8845 30.7841 39.166 31.5025 39.166 32.3856V36.2919C39.166 37.1749 39.8845 37.8934 40.7676 37.8934ZM40.8067 32.4247H44.6348V36.2528H40.8067V32.4247ZM29.6206 27.5028H33.5268C34.4099 27.5028 35.1284 26.7843 35.1284 25.9012V21.995C35.1284 21.1119 34.4099 20.3934 33.5268 20.3934H29.6206C28.7375 20.3934 28.019 21.1119 28.019 21.995V25.9012C28.019 26.7843 28.7375 27.5028 29.6206 27.5028ZM29.6596 22.0341H33.4877V25.8622H29.6596V22.0341ZM11.2327 40.6875H7.32643C6.44334 40.6875 5.72485 41.406 5.72485 42.2891V46.1953C5.72485 47.0784 6.44334 47.7969 7.32643 47.7969H11.2327C12.1157 47.7969 12.8342 47.0784 12.8342 46.1953V42.2891C12.8342 41.406 12.1157 40.6875 11.2327 40.6875ZM11.1936 46.1563H7.36548V42.3282H11.1936V46.1563ZM11.2327 20.3934H7.32643C6.44334 20.3934 5.72485 21.1119 5.72485 21.995V25.9012C5.72485 26.7843 6.44334 27.5028 7.32643 27.5028H11.2327C12.1157 27.5028 12.8342 26.7843 12.8342 25.9012V21.995C12.8342 21.1118 12.1157 20.3934 11.2327 20.3934ZM11.1936 25.8622H7.36548V22.0341H11.1936V25.8622ZM29.6206 37.6499H33.5268C34.4099 37.6499 35.1284 36.9314 35.1284 36.0483V32.1421C35.1284 31.259 34.4099 30.5405 33.5268 30.5405H29.6206C28.7375 30.5405 28.019 31.259 28.019 32.1421V36.0483C28.019 36.9314 28.7375 37.6499 29.6206 37.6499ZM29.6596 32.1811H33.4877V36.0092H29.6596V32.1811ZM11.2327 30.5405H7.32643C6.44334 30.5405 5.72485 31.259 5.72485 32.1421V36.0483C5.72485 36.9314 6.44334 37.6499 7.32643 37.6499H11.2327C12.1157 37.6499 12.8342 36.9314 12.8342 36.0483V32.1421C12.8342 31.2589 12.1157 30.5405 11.2327 30.5405ZM11.1936 36.0092H7.36548V32.1811H11.1936V36.0092ZM18.4735 27.5028H22.3797C23.2628 27.5028 23.9813 26.7843 23.9813 25.9012V21.995C23.9813 21.1119 23.2628 20.3934 22.3797 20.3934H18.4735C17.5904 20.3934 16.8719 21.1119 16.8719 21.995V25.9012C16.8719 26.7843 17.5904 27.5028 18.4735 27.5028ZM18.5125 22.0341H22.3407V25.8622H18.5125V22.0341ZM29.6586 46.1563C29.6383 45.7213 29.2792 45.375 28.8392 45.375C28.3861 45.375 28.0189 45.7423 28.0189 46.1953C28.0189 47.0784 28.7374 47.7969 29.6204 47.7969H33.5267C34.4098 47.7969 35.1282 47.0784 35.1282 46.1953V42.2891C35.1282 41.406 34.4098 40.6875 33.5267 40.6875H29.6204C28.7374 40.6875 28.0189 41.406 28.0189 42.2891V43.4157C28.0189 43.8687 28.3861 44.236 28.8392 44.236C29.2922 44.236 29.6595 43.8687 29.6595 43.4157V42.3282H33.4876V46.1563H29.6586ZM18.4735 37.6499H22.3797C23.2628 37.6499 23.9813 36.9314 23.9813 36.0483V32.1421C23.9813 31.259 23.2628 30.5405 22.3797 30.5405H18.4735C17.5904 30.5405 16.8719 31.259 16.8719 32.1421V36.0483C16.8719 36.9314 17.5904 37.6499 18.4735 37.6499ZM18.5125 32.1811H22.3407V36.0092H18.5125V32.1811ZM18.4735 47.7969H22.3797C23.2628 47.7969 23.9813 47.0784 23.9813 46.1953V42.2891C23.9813 41.406 23.2628 40.6875 22.3797 40.6875H18.4735C17.5904 40.6875 16.8719 41.406 16.8719 42.2891V46.1953C16.8719 47.0784 17.5904 47.7969 18.4735 47.7969ZM18.5125 42.3282H22.3407V46.1563H18.5125V42.3282Z" fill="#D8463F"/>
</svg>
