<svg width="16" height="16" viewBox="0 0 16 16" fill="none" xmlns="http://www.w3.org/2000/svg">
<g clip-path="url(#clip0)">
<path d="M0.825187 16C0.614428 16 0.403668 15.9199 0.243539 15.7585C-0.0779245 15.4371 -0.0779245 14.9159 0.243539 14.5944L14.5969 0.241101C14.9183 -0.080362 15.4395 -0.080362 15.761 0.241101C16.0824 0.562565 16.0824 1.08374 15.761 1.4054L1.40784 15.7585C1.24651 15.9189 1.03575 16 0.825187 16Z" fill="#302A2A"/>
<path d="M15.1795 16C14.9688 16 14.7582 15.9199 14.5979 15.7585L0.243539 1.4054C-0.0779245 1.08374 -0.0779245 0.562565 0.243539 0.241101C0.565003 -0.080362 1.08618 -0.080362 1.40784 0.241101L15.761 14.5944C16.0824 14.9159 16.0824 15.4371 15.761 15.7585C15.5996 15.9189 15.3891 16 15.1795 16Z" fill="#302A2A"/>
</g>
<defs>
<clipPath id="clip0">
<rect width="16" height="16" fill="white"/>
</clipPath>
</defs>
</svg>
