<svg width="36" height="40" viewBox="0 0 36 40" fill="none" xmlns="http://www.w3.org/2000/svg">
<path d="M18.106 20.1414C16.0082 20.1438 13.997 20.9783 12.5137 22.4617C11.0303 23.945 10.1958 25.9562 10.1934 28.054C10.1934 31.4759 15.5071 37.4327 18.106 40C20.705 37.432 26.0187 31.473 26.0187 28.054C26.0162 25.9562 25.1818 23.945 23.6984 22.4617C22.215 20.9783 20.2038 20.1438 18.106 20.1414ZM18.106 31.6507C17.3947 31.6507 16.6993 31.4398 16.1078 31.0446C15.5164 30.6493 15.0554 30.0876 14.7831 29.4304C14.5109 28.7732 14.4397 28.05 14.5785 27.3524C14.7172 26.6547 15.0598 26.0138 15.5628 25.5108C16.0658 25.0078 16.7067 24.6652 17.4044 24.5265C18.102 24.3877 18.8252 24.4589 19.4824 24.7311C20.1396 25.0034 20.7013 25.4644 21.0966 26.0558C21.4918 26.6473 21.7027 27.3427 21.7027 28.054C21.7016 29.0076 21.3223 29.9217 20.648 30.596C19.9737 31.2703 19.0596 31.6496 18.106 31.6507Z" fill="#0289C4"/>
<path d="M18.106 30.212C19.2978 30.212 20.264 29.2459 20.264 28.054C20.264 26.8622 19.2978 25.896 18.106 25.896C16.9142 25.896 15.948 26.8622 15.948 28.054C15.948 29.2459 16.9142 30.212 18.106 30.212Z" fill="#0289C4"/>
<path d="M35.37 8.63199H23.1413V16.5447C23.1414 16.6751 23.106 16.803 23.039 16.9149C22.9719 17.0267 22.8757 17.1182 22.7607 17.1796C22.6457 17.241 22.5161 17.27 22.3859 17.2634C22.2556 17.2569 22.1296 17.2151 22.0213 17.1424L18.1312 14.5305L14.1871 17.1424C14.0695 17.2211 13.9314 17.2634 13.79 17.264C13.5992 17.264 13.4162 17.1882 13.2813 17.0533C13.1464 16.9184 13.0707 16.7354 13.0707 16.5447V8.63199H0.84198V37.4053H13.7591C11.3694 34.5726 8.75465 30.8385 8.75465 28.054C8.75465 25.5739 9.73988 23.1953 11.4936 21.4416C13.2473 19.6879 15.6259 18.7027 18.106 18.7027C20.5861 18.7027 22.9647 19.6879 24.7184 21.4416C26.4721 23.1953 27.4573 25.5739 27.4573 28.054C27.4573 30.8385 24.8426 34.5726 22.4529 37.4053H35.37V8.63199Z" fill="#0289C4"/>
<path d="M14.3799 0H4.88323L1.28656 7.19334H13.1807L14.3799 0Z" fill="#0289C4"/>
<path d="M21.5725 7.19334L20.3741 0H15.8379L14.6395 7.19334H21.5725Z" fill="#0289C4"/>
<path d="M14.5093 15.2053L17.7362 13.0681C17.8544 12.9893 17.9933 12.9472 18.1354 12.9472C18.2775 12.9472 18.4165 12.9893 18.5347 13.0681L21.7026 15.1959V8.63199H14.5093V15.2053Z" fill="#0289C4"/>
<path d="M34.9255 7.19334L31.3288 0H21.8322L23.0313 7.19334H34.9255Z" fill="#0289C4"/>
</svg>
