<svg width="40" height="40" viewBox="0 0 40 40" fill="none" xmlns="http://www.w3.org/2000/svg">
<path d="M11.7967 32.8905C11.7967 30.3053 9.69448 28.2031 7.10928 28.2031C4.52408 28.2031 2.42184 30.3053 2.42184 32.8905V35.2342C2.42184 36.5262 1.29201 37.6561 0 37.6561V39.9998H4.76556C8.64277 39.9998 11.7967 36.7677 11.7967 32.8905Z" fill="#0289C4"/>
<path d="M19.614 9.81259C18.9887 9.98079 18.617 10.6213 18.7855 11.2477C18.947 11.8503 19.5654 12.2467 20.2206 12.0762C20.8503 11.9068 21.2158 11.2632 21.0491 10.6411C20.8799 10.0124 20.2326 9.64579 19.614 9.81259Z" fill="#0289C4"/>
<path d="M12.9846 18.7057C13.6064 18.8706 14.2499 18.5088 14.4197 17.8772C14.5889 17.2458 14.2122 16.6087 13.5922 16.4421H13.5911C13.2586 16.3524 13.1688 16.4199 12.9337 16.4966C12.947 17.2029 12.9563 17.9356 12.9612 18.6942C12.9698 18.6967 12.9758 18.7034 12.9846 18.7057Z" fill="#0289C4"/>
<path d="M25.9014 28.7512C25.7319 28.121 25.0852 27.7568 24.4663 27.9238C23.8302 28.0948 23.4724 28.744 23.6378 29.3588C23.8049 29.9825 24.4412 30.351 25.0729 30.1874C25.6983 30.0192 26.0699 29.3787 25.9014 28.7523V28.7512Z" fill="#0289C4"/>
<path d="M29.8015 14.2002C30.2581 13.7425 30.2581 12.9986 29.8015 12.5419C29.3446 12.0851 28.602 12.0832 28.1432 12.5419C27.6866 12.9986 27.6866 13.7436 28.1444 14.2002C28.5998 14.6557 29.3437 14.6557 29.8015 14.2002Z" fill="#0289C4"/>
<path d="M22.4121 2.36035C18.5625 2.4991 15.0288 4.02088 12.2121 5.95288C12.5278 8.10191 12.7508 10.7768 12.8696 14.085C13.3083 14.0326 13.7571 14.0603 14.1965 14.1786C16.0745 14.6807 17.1877 16.6058 16.6833 18.4837C16.2581 20.0721 14.8232 21.0906 13.2936 21.0906C13.181 21.0906 13.0688 21.0569 12.9562 21.046C12.9421 22.9204 12.8996 24.7749 12.8187 26.5459C14.019 27.0445 14.9571 27.7088 15.5697 28.5693C16.8102 30.3122 16.4795 32.3561 16.3491 32.942C15.9145 34.8883 17.062 36.8697 19.0281 37.2484C20.1393 37.4613 21.2563 37.5665 22.3652 37.5665C32.0032 37.5665 40.078 29.7377 39.9995 19.8593C39.9173 9.84049 31.2474 2.02747 22.4121 2.36035ZM26.485 10.8849C27.8583 9.51393 30.0876 9.51393 31.4586 10.8849C32.8296 12.2559 32.8296 14.4864 31.4586 15.8573V15.8584C30.0877 17.227 27.8571 17.2272 26.4862 15.8584C25.1163 14.4863 25.1163 12.2559 26.485 10.8849ZM16.5219 11.853C16.0231 10.0004 17.1109 8.0559 19.0075 7.54895C20.8717 7.04888 22.8091 8.16121 23.3127 10.0345C23.816 11.9087 22.7054 13.8369 20.8271 14.3397C18.9536 14.8418 17.0253 13.7359 16.5219 11.853ZM25.6793 32.451C23.8062 32.9528 21.8765 31.8372 21.3742 29.9654C20.8708 28.0913 21.9814 26.1631 23.8598 25.6603C25.746 25.1585 27.6638 26.2728 28.1649 28.147C28.6698 30.024 27.5536 31.9499 25.6793 32.451ZM34.7944 23.3359C34.2923 25.2139 32.3627 26.3253 30.4892 25.8215C28.6162 25.3201 27.4981 23.3978 28.0036 21.5163C28.5109 19.6212 30.452 18.5332 32.3088 19.0308C34.1822 19.5331 35.2969 21.4649 34.7944 23.3359Z" fill="#0289C4"/>
<path d="M31.7023 21.2943C31.0885 21.1288 30.4385 21.4864 30.2672 22.1228C30.098 22.7542 30.4747 23.3913 31.0947 23.5579C31.7364 23.7237 32.3647 23.3476 32.5309 22.7294C32.6979 22.1057 32.326 21.4614 31.7023 21.2943Z" fill="#0289C4"/>
<path d="M10.6108 21.1719C10.614 20.7798 10.6249 20.3939 10.6249 20C10.6249 10.9124 10.0149 0.000305176 7.10932 0.000305176C4.20374 0.000305176 3.59375 10.9124 3.59375 20C3.59375 20.3939 3.60461 20.7798 3.60789 21.1719H10.6108Z" fill="#0289C4"/>
<path d="M7.10928 25.8593C8.33036 25.8593 9.46245 26.2001 10.4641 26.7498C10.5147 25.6981 10.5534 24.6148 10.5804 23.5156H3.63815C3.66518 24.6148 3.70378 25.6981 3.75448 26.7498C4.75611 26.2 5.8882 25.8593 7.10928 25.8593Z" fill="#0289C4"/>
</svg>
