<svg width="80" height="56" viewBox="0 0 80 56" fill="none" xmlns="http://www.w3.org/2000/svg">
<path d="M70.6324 30.8139H65.701V28.4747H70.6324V30.8139ZM63.3618 30.8139H61.0226V28.4747H63.3618V30.8139ZM58.6834 30.8139H56.3442V28.4747H58.6834V30.8139Z" fill="#D8463F"/>
<path d="M8.08662 33.2504V38.2606C8.08662 41.2531 10.1008 44.0116 13.7581 46.0277C20.8675 49.9471 32.2377 49.9486 39.3504 46.0277C43.0077 44.0116 45.0219 41.2532 45.0219 38.2606V33.2502C49.7686 29.9101 53.1079 25.087 53.1079 19.339C53.1079 14.0991 50.2938 9.19953 45.1841 5.5429C34.8581 -1.84662 18.2531 -1.84865 7.92412 5.5429C2.81454 9.19953 0.000488281 14.0991 0.000488281 19.339C0.000488281 25.0983 3.35068 29.9176 8.08662 33.2504ZM42.6827 38.2606C42.6827 42.7955 35.2968 46.6268 26.5541 46.6268C17.9873 46.6268 10.7232 42.948 10.4347 38.5332C11.3127 39.4396 12.4265 40.272 13.7581 41.006C17.1951 42.9008 21.7397 43.9444 26.5543 43.9444V41.6052C18.9046 41.6052 12.2934 38.6718 10.7603 34.9004C20.2035 39.9922 33.3103 39.9392 42.6829 34.7169V38.2606H42.6827ZM26.5543 2.34288C39.9061 2.34288 50.7687 9.96725 50.7687 19.3389C50.7687 28.7106 39.9061 36.335 26.5543 36.335C13.2024 36.335 2.33968 28.7106 2.33968 19.339C2.33968 9.96741 13.2023 2.34288 26.5543 2.34288Z" fill="#0289C4"/>
<path d="M40.6197 26.4967C37.003 29.0129 31.8764 30.4559 26.5544 30.4559V32.7951C32.3425 32.7951 37.956 31.1993 41.9556 28.4171C44.0569 26.9554 47.5821 23.8324 47.5821 19.339C47.5821 14.8457 44.0571 11.7225 41.9557 10.2609L40.6199 12.181C42.3465 13.3821 45.2431 15.9092 45.2431 19.339C45.2427 22.7688 42.3464 25.2958 40.6197 26.4967Z" fill="#0289C4"/>
<path d="M11.1531 28.417L12.4889 26.4969C10.7623 25.2958 7.86572 22.7688 7.86572 19.3391C7.86572 15.9094 10.7623 13.3823 12.4889 12.1812C16.1056 9.66513 21.2324 8.22201 26.5542 8.22201V5.88281C20.7661 5.88281 15.1526 7.47846 11.1529 10.2608C9.05153 11.7227 5.52637 14.8458 5.52637 19.3389C5.52652 23.8322 9.05169 26.9554 11.1531 28.417Z" fill="#0289C4"/>
<path d="M14.2725 19.339C14.2725 23.4299 19.6674 26.6345 26.5545 26.6345C33.4415 26.6345 38.8365 23.4299 38.8365 19.339C38.8365 15.2482 33.4415 12.0436 26.5545 12.0436C19.6674 12.0436 14.2725 15.248 14.2725 19.339ZM36.4972 19.339C36.4972 20.5125 35.5314 21.7179 33.8473 22.6463C29.8615 24.8436 23.2593 24.8503 19.2615 22.6463C17.5774 21.7179 16.6117 20.5125 16.6117 19.339C16.6117 18.1655 17.5774 16.96 19.2615 16.0317C23.2473 13.8344 29.8495 13.8277 33.8473 16.0317C35.5314 16.9598 36.4972 18.1653 36.4972 19.339Z" fill="#0289C4"/>
<path d="M26.5544 53.6583C13.2026 53.6583 2.34001 46.0339 2.34001 36.6622C2.34001 34.9701 2.69604 33.2987 3.39826 31.6945L1.25556 30.7565C-1.55085 37.167 0.210721 44.9381 7.92461 50.4584C17.4522 57.2766 32.1822 57.7566 42.4691 52.1557C47.0076 49.6849 50.3938 46.1534 52.0043 42.2118L49.8389 41.327C46.8721 48.5875 37.2973 53.6583 26.5544 53.6583Z" fill="#D8463F"/>
<path d="M74.0745 28.2904L76.2696 31.6142L74.0743 34.938L75.4965 37.091H47.3613V39.4302H79.8457L76.8778 34.9379L79.0729 31.6142L76.8776 28.2902L79.8449 23.7961H54.4879V26.1353H75.4973L74.0745 28.2904Z" fill="#D8463F"/>
</svg>
