<svg width="60" height="56" viewBox="0 0 60 56" fill="none" xmlns="http://www.w3.org/2000/svg">
<g clip-path="url(#clip0)">
<path d="M1.00002 56H33C33.1313 56 33.2614 55.9741 33.3827 55.9239C33.504 55.8736 33.6143 55.8 33.7071 55.7071C33.8 55.6143 33.8736 55.504 33.9239 55.3827C33.9742 55.2614 34 55.1313 34 55V52.4142C34.0016 51.8343 33.8882 51.2598 33.6662 50.724C33.4443 50.1883 33.1183 49.7018 32.7071 49.2929L32 48.5858V33C31.9969 30.4306 31.0061 27.9607 29.2326 26.1015C27.4591 24.2424 25.0386 23.1362 22.4722 23.012L22.8143 22.1568C23.5993 20.1992 24.0018 18.1092 24 16C24 15.8687 23.9742 15.7386 23.9239 15.6173C23.8737 15.496 23.8 15.3857 23.7071 15.2929C23.6143 15.2 23.504 15.1264 23.3827 15.0761C23.2614 15.0259 23.1313 15 23 15H11C10.8687 15 10.7387 15.0259 10.6173 15.0761C10.496 15.1264 10.3858 15.2 10.2929 15.2929C10.2 15.3857 10.1264 15.496 10.0761 15.6173C10.0259 15.7386 10 15.8687 10 16C9.99823 18.1092 10.4007 20.1991 11.1857 22.1568L11.5278 23.012C8.96139 23.1362 6.54097 24.2424 4.76746 26.1015C2.99395 27.9607 2.00311 30.4306 2.00002 33V47.5858C2.00089 47.903 1.93884 48.2171 1.81747 48.5102C1.6961 48.8032 1.51781 49.0692 1.29292 49.2928C0.881729 49.7018 0.555732 50.1882 0.333803 50.724C0.111875 51.2598 -0.0015767 51.8343 1.65508e-05 52.4142V55C1.27751e-05 55.1313 0.0258759 55.2614 0.0761293 55.3827C0.126383 55.504 0.200042 55.6143 0.292901 55.7071C0.385761 55.8 0.496001 55.8736 0.617329 55.9239C0.738656 55.9741 0.868694 56 1.00002 56ZM21.9661 17C21.863 18.5151 21.5226 20.0045 20.9574 21.414L20.323 23H13.6771L13.0427 21.414C12.4774 20.0045 12.137 18.5151 12.034 17H21.9661ZM2.00002 52.4142C1.99914 52.097 2.06119 51.7828 2.18256 51.4898C2.30393 51.1968 2.48222 50.9307 2.70711 50.7071C3.11829 50.2982 3.44428 49.8117 3.66621 49.276C3.88814 48.7402 4.0016 48.1657 4.00002 47.5858V33C4.00242 30.879 4.84605 28.8456 6.34582 27.3458C7.84559 25.846 9.87902 25.0024 12 25H22C24.121 25.0024 26.1544 25.846 27.6542 27.3458C29.154 28.8456 29.9976 30.879 30 33V48H26V50H30.5858L31.2929 50.7071C31.5178 50.9308 31.6961 51.1968 31.8175 51.4898C31.9389 51.7828 32.0009 52.097 32 52.4142V54H2.00002V52.4142Z" fill="#D8463F"/>
<path d="M17.4431 39H15.4431C15.0453 39 14.6638 38.842 14.3825 38.5607C14.1012 38.2794 13.9431 37.8978 13.9431 37.5C13.9431 37.1022 14.1012 36.7206 14.3825 36.4393C14.6638 36.158 15.0453 36 15.4431 36H19.4431V34H17.4431V32H15.4431V34C14.5149 34 13.6246 34.3687 12.9682 35.0251C12.3119 35.6815 11.9431 36.5717 11.9431 37.5C11.9431 38.4283 12.3119 39.3185 12.9682 39.9749C13.6246 40.6312 14.5149 41 15.4431 41H17.4431C17.8409 41 18.2225 41.158 18.5038 41.4393C18.7851 41.7206 18.9431 42.1022 18.9431 42.5C18.9431 42.8978 18.7851 43.2793 18.5038 43.5607C18.2225 43.842 17.8409 44 17.4431 44H12.4431V46H15.4431V47.5936H17.4431V46C18.3714 46 19.2616 45.6312 19.918 44.9749C20.5744 44.3185 20.9431 43.4282 20.9431 42.5C20.9431 41.5717 20.5744 40.6815 19.918 40.0251C19.2616 39.3687 18.3714 39 17.4431 39Z" fill="#D8463F"/>
<path d="M59 30H55V20H57C57.1313 20 57.2614 19.9741 57.3827 19.9239C57.504 19.8736 57.6142 19.8 57.7071 19.7071C57.8 19.6143 57.8736 19.504 57.9239 19.3827C57.9741 19.2614 58 19.1313 58 19V7C58 6.86868 57.9741 6.73864 57.9239 6.61731C57.8736 6.49598 57.8 6.38574 57.7071 6.29288C57.6142 6.20003 57.504 6.12637 57.3827 6.07611C57.2614 6.02586 57.1313 6 57 6H56.9973C57.649 5.13576 58.0011 4.08247 58 3V1C58 0.868677 57.9741 0.738639 57.9239 0.617312C57.8736 0.495985 57.8 0.385744 57.7071 0.292885C57.6142 0.200025 57.504 0.126366 57.3827 0.0761127C57.2614 0.0258594 57.1313 -3.77528e-06 57 4.13344e-10H49C48.8687 -3.77528e-06 48.7386 0.0258594 48.6173 0.0761127C48.496 0.126366 48.3857 0.200025 48.2929 0.292885C48.2 0.385744 48.1264 0.495985 48.0761 0.617312C48.0259 0.738639 48 0.868677 48 1V3C47.9991 3.79538 47.6827 4.55792 47.1203 5.12034C46.5579 5.68275 45.7954 5.99911 45 6H29C28.8687 6 28.7386 6.02586 28.6173 6.07611C28.496 6.12637 28.3857 6.20003 28.2929 6.29288C28.2 6.38574 28.1264 6.49598 28.0761 6.61731C28.0259 6.73864 28 6.86868 28 7V18H26C25.8687 18 25.7386 18.0259 25.6173 18.0761C25.496 18.1264 25.3857 18.2 25.2929 18.2929C25.2 18.3857 25.1264 18.496 25.0761 18.6173C25.0259 18.7386 25 18.8687 25 19V22H27V20H35V22H29V24H35V26H32V28H35V30H34V32H40V34H36V36H40V38H36V40H40V42H33V44H38V46H36V48H38V50H36V52H38V54H35V56H57C57.1313 56 57.2614 55.9741 57.3827 55.9239C57.504 55.8736 57.6142 55.8 57.7071 55.7071C57.8 55.6143 57.8736 55.504 57.9239 55.3827C57.9741 55.2614 58 55.1313 58 55V44H59C59.1313 44 59.2614 43.9741 59.3827 43.9239C59.504 43.8736 59.6142 43.8 59.7071 43.7071C59.8 43.6143 59.8736 43.504 59.9239 43.3827C59.9741 43.2614 60 43.1313 60 43V31C60 30.8687 59.9741 30.7386 59.9239 30.6173C59.8736 30.496 59.8 30.3857 59.7071 30.2929C59.6142 30.2 59.504 30.1264 59.3827 30.0761C59.2614 30.0259 59.1313 30 59 30ZM58 34H50V32H58V34ZM48 48H56V50H48V48ZM50 36H58V38H50V36ZM45 30V28H53V30H45ZM53 26H45V24H53V26ZM53 22H45V20H53V22ZM56 8V10H48V8H56ZM48 12H56V14H48V12ZM48 18V16H56V18H48ZM50 3V2H56V3C55.9991 3.79538 55.6827 4.55792 55.1203 5.12034C54.5579 5.68275 53.7954 5.99911 53 6H48.9973C49.649 5.13576 50.0011 4.08247 50 3ZM46 8V18H40V8H46ZM30 8H38V10H32V12H38V14H32V16H38V18H30V8ZM37 20H43V30H37V20ZM42 32H48V42H42V32ZM40 44H46V54H40V44ZM48 54V52H56V54H48ZM56 46H48V44H56V46ZM50 42V40H58V42H50Z" fill="#0289C4"/>
</g>
<defs>
<clipPath id="clip0">
<rect width="60" height="56" fill="white"/>
</clipPath>
</defs>
</svg>
