<svg width="52" height="56" viewBox="0 0 52 56" fill="none" xmlns="http://www.w3.org/2000/svg">
<path d="M41.5904 30.8V28.9334H39.7256V30.8C39.7236 32.4978 40.1448 34.1692 40.9511 35.6628C41.0593 36.0354 41.1669 36.4214 41.2726 36.8159L40.0902 39.1831C38.4347 42.4976 35.6996 45.1478 32.3364 46.6962C28.9732 48.2446 25.183 48.5987 21.5917 47.6999L21.3039 47.6279L20.8516 49.4387L21.1394 49.5107C21.8673 49.6927 22.606 49.8288 23.351 49.9182C18.8964 52.6785 13.7601 54.1384 8.52113 54.1333C7.26218 54.1371 6.03921 53.7132 5.0523 52.9307C4.0654 52.1483 3.373 51.0537 3.08841 49.8261L2.62085 47.8373C1.30142 42.2582 1.71674 36.4088 3.81115 31.0726L8.89263 18.0735C8.93497 17.9651 8.95671 17.8498 8.95671 17.7334V7.89026L15.678 2.00328L22.2297 4.46262L23.7399 8.24174L21.0005 11.6695L18.415 9.0813L19.1652 6.82864L17.396 6.23824L16.4636 9.03824C16.4089 9.20269 16.401 9.37915 16.4407 9.54786C16.4805 9.71657 16.5664 9.87086 16.6889 9.99344L18.9276 12.2344L14.7247 18.1243C14.5886 18.315 14.5292 18.55 14.5582 18.7825L15.2156 24.0468C16.0039 30.2937 15.4733 36.6366 13.658 42.6651L15.4441 43.2015C16.5067 39.6679 17.1496 36.0213 17.3595 32.3371C18.7651 29.5896 20.8402 27.2414 23.393 25.5097C25.9458 23.7781 28.8936 22.7189 31.9638 22.4303C32.0373 22.746 32.1246 23.06 32.2281 23.3709L33.2468 26.4287L35.0157 25.8381L33.9972 22.7805C33.5071 21.3099 33.4168 19.7353 33.7355 18.2183C34.0541 16.7013 34.7703 15.2964 35.8105 14.1479C36.8506 12.9994 38.1773 12.1487 39.6545 11.683C41.1316 11.2172 42.7059 11.1533 44.2158 11.4978C44.0518 11.879 43.9122 12.2702 43.7978 12.6691L43.491 13.7436L45.2841 14.2565L45.5908 13.1819C46.0126 11.7203 46.8377 10.4074 47.9715 9.3942C49.1052 8.38097 50.5015 7.70852 52 7.45413L51.6934 5.61276C50.376 5.83623 49.117 6.323 47.9916 7.04403C46.8662 7.76506 45.8973 8.70558 45.1429 9.8095C43.5226 9.35336 41.817 9.2904 40.1676 9.62585C38.5181 9.9613 36.9723 10.6855 35.6583 11.7384C34.3443 12.7913 33.2999 14.1426 32.6118 15.6802C31.9237 17.2178 31.6117 18.8974 31.7015 20.5799C28.887 20.8582 26.1621 21.7242 23.7027 23.122C21.2433 24.5199 19.1041 26.4184 17.4231 28.6952C17.3878 27.0635 17.2687 25.4347 17.0661 23.8153L16.4538 18.9126L20.2643 13.5725L20.4184 13.7268C20.5112 13.8196 20.6224 13.8917 20.7449 13.9386C20.8674 13.9854 20.9984 14.0059 21.1294 13.9986C21.2603 13.9913 21.3882 13.9565 21.5048 13.8964C21.6214 13.8363 21.724 13.7522 21.8059 13.6497L25.5354 8.98309C25.6385 8.85419 25.7055 8.70023 25.7297 8.53692C25.7539 8.37361 25.7343 8.2068 25.673 8.05352L23.8083 3.38687C23.7601 3.26633 23.6874 3.15717 23.5947 3.06637C23.502 2.97558 23.3914 2.90515 23.2699 2.85959L15.8108 0.0596025C15.6531 0.000258301 15.4822 -0.0151362 15.3165 0.0150603C15.1507 0.0452567 14.9962 0.119912 14.8695 0.231069L7.41039 6.76438C7.31036 6.85197 7.23019 6.95996 7.17527 7.0811C7.12034 7.20224 7.09193 7.33374 7.09193 7.46677V17.5573L2.07452 30.3924C-0.15819 36.0812 -0.600904 42.3171 0.805688 48.2648L1.27325 50.2537C1.65294 51.8914 2.57668 53.3517 3.89333 54.3956C5.20997 55.4394 6.84156 56.0051 8.52113 56C14.4618 56.0056 20.2703 54.2452 25.21 50.9418L26.2569 50.2432L26.1199 50.0375C29.3871 49.9353 32.5658 48.9499 35.319 47.186C38.0721 45.422 40.2971 42.9452 41.758 40.018L41.9565 39.6208C42.9517 44.1279 43.4542 48.7299 43.4552 53.3458V56H45.32V53.3458C45.3193 48.4919 44.7797 43.653 43.7112 38.9184C45.5044 40.3129 47.7111 41.0689 49.9819 41.0667V39.2C47.7571 39.1975 45.6241 38.3117 44.051 36.7369C42.4778 35.1622 41.5929 33.0271 41.5904 30.8Z" fill="#0289C4"/>
<path d="M47.1847 16.3003C47.1847 18.1656 46.4444 19.9544 45.1268 21.2734C43.8092 22.5924 42.0221 23.3334 40.1587 23.3334H38.7932V25.2001H40.1587C41.3262 25.2001 42.4824 24.9699 43.5611 24.5226C44.6398 24.0754 45.6199 23.4198 46.4455 22.5934C47.2711 21.767 47.926 20.7859 48.3728 19.7061C48.8196 18.6263 49.0495 17.469 49.0495 16.3003V15.8668H47.1847V16.3003Z" fill="#D8463F"/>
<path d="M5.30273 45.3657L7.01682 46.101L7.82231 44.2195C11.0196 36.7312 12.3673 28.582 11.7514 20.4619L9.89208 20.605C10.4853 28.4249 9.18735 36.2728 6.10822 43.4842L5.30273 45.3657Z" fill="#D8463F"/>
<path d="M32.7938 30.4397C32.3727 32.1258 31.4462 33.6426 30.1388 34.7864C28.8314 35.9301 27.2057 36.646 25.4801 36.838L20.9746 37.3391L21.1806 39.1944L25.6861 38.6933C27.79 38.4592 29.772 37.5864 31.366 36.1919C32.9599 34.7975 34.0894 32.9482 34.6029 30.8925L35.0356 29.1598L33.2266 28.707L32.7938 30.4397Z" fill="#D8463F"/>
</svg>
