<svg width="50" height="50" viewBox="0 0 50 50" fill="none" xmlns="http://www.w3.org/2000/svg">
<path d="M25.8773 0V22.807L47.2544 14.8596C43.9334 5.92643 35.4078 0.000146649 25.8773 0V0Z" fill="#D8463F"/>
<path d="M1.25439 22.2017L21.4912 26.9649V6.14035C11.9578 6.48912 3.7587 12.9965 1.25439 22.2017Z" fill="#D8463F"/>
<path d="M14.4737 48.4912L21.2281 28.7018L0.842128 23.9123C-1.15131 34.323 4.58683 44.6694 14.4737 48.4912Z" fill="#D8463F"/>
<path d="M26.7544 38.5965C26.7544 44.8945 31.8599 50 38.1579 50C44.4559 50 49.5614 44.8945 49.5614 38.5965C49.5614 32.2985 44.4559 27.193 38.1579 27.193C31.8599 27.193 26.7544 32.2985 26.7544 38.5965ZM39.0351 31.579V32.579C40.5802 32.9779 41.6615 34.3692 41.6667 35.9649C41.6667 36.4494 41.2739 36.8421 40.7895 36.8421C40.305 36.8421 39.9123 36.4494 39.9123 35.9649C39.9123 34.996 39.1268 34.2105 38.1579 34.2105C37.189 34.2105 36.4035 34.996 36.4035 35.9649C36.4035 36.9338 37.189 37.7193 38.1579 37.7193C39.9084 37.7403 41.3756 39.0484 41.5966 40.785C41.8175 42.5216 40.7246 44.1554 39.0351 44.614V45.614C39.0351 46.0985 38.6424 46.4912 38.1579 46.4912C37.6734 46.4912 37.2807 46.0985 37.2807 45.614V44.614C35.7356 44.2151 34.6543 42.8238 34.6491 41.2281C34.6491 40.7436 35.0419 40.3509 35.5263 40.3509C36.0108 40.3509 36.4035 40.7436 36.4035 41.2281C36.4035 42.197 37.189 42.9825 38.1579 42.9825C39.1268 42.9825 39.9123 42.197 39.9123 41.2281C39.9123 40.2592 39.1268 39.4737 38.1579 39.4737C36.4074 39.4527 34.9402 38.1446 34.7192 36.408C34.4983 34.6714 35.5912 33.0376 37.2807 32.579V31.579C37.2807 31.0945 37.6734 30.7018 38.1579 30.7018C38.6424 30.7018 39.0351 31.0945 39.0351 31.579Z" fill="#D8463F"/>
<path d="M16.0965 49.0614C20.5707 50.4171 25.3624 50.2971 29.7632 48.7193C24.5647 44.4197 23.4602 36.885 27.206 31.2743C30.9517 25.6636 38.3341 23.7947 44.2983 26.9474C44.2111 25.0118 43.8629 23.0968 43.2632 21.2544L23.0877 28.7456L16.0965 49.0614Z" fill="#D8463F"/>
</svg>
